CoelacanthDisplayGross.sfdir
StartChar: B
Encoding: 66 66 2376
Width: 632
Flags: HMW
AnchorPoint: "Bottom" 301 -15 basechar 0
AnchorPoint: "Top" 293 682 basechar 0
LayerCount: 2
Fore
SplineSet
311 391 m 0
 339.080078125 404.248046875 378 439.7578125 378 518 c 3
 378 596.006835938 317.069335938 659 288 659 c 3
 278.306640625 659 267.5625 657.662109375 260 656 c 0
 255.098632812 649.965820312 252.227539062 640.665039062 251 631 c 0
 248.211914062 609.048828125 239 435 243 382 c 1
 276.943359375 382 298.201171875 385.655273438 311 391 c 0
333 343 m 0
 313.594726562 348.53125 293.58203125 353 243 354 c 1
 242 266.272460938 242.279296875 179.3125 244 143 c 0
 246.091796875 98.8662109375 249.454101562 82.28125 253 68 c 0
 259.024414062 43.7333984375 286.063476562 40 287 40 c 3
 356.950195312 40 429 90.6669921875 429 170 c 3
 429 253.55078125 401.377929688 326.590820312 333 343 c 0
42 19 m 1
 78 24 88.7490234375 26.2998046875 99 125 c 0
 104.569335938 178.625976562 108 328.515625 108 430 c 3
 108 471.134765625 106.838867188 548.807617188 106 565 c 0
 101 661.483398438 92.091796875 666.409179688 50 681 c 0
 47.1318359375 681.994140625 39.5 683.666992188 43 683 c 1
 45 709 l 1
 71 705 127 699 160 699 c 3
 213 699 244 707 298 707 c 3
 405.0234375 707 531 643 531 536 c 3
 531 462 467 401 365 385 c 1
 477 371 591 305 591 188 c 3
 591 38 439.069335938 -6 309 -6 c 3
 241 -6 212 -2 164 -2 c 3
 117 -2 82 -2 43 -7 c 1
 42 19 l 1
EndSplineSet
Position2: "cpsp-1" dx=0 dy=0 dh=50 dv=100
Substitution2: "c2pc-1" b.pcap
Substitution2: "c2sc-1" b.smcp
EndChar
StartChar: E
Encoding: 69 69 2398
Width: 655
Flags: HW
AnchorPoint: "Bottom" 319 -15 basechar 0
AnchorPoint: "Top" 340 682 basechar 0
AnchorPoint: "Ogonek" 570 1 basechar 0
LayerCount: 2
Fore
SplineSet
51 707 m 1
 100 707 180 706 264 706 c 3
 402 706 548 707 575 711 c 1
 580 709 581 707 581 701 c 3
 581 689 573 659 564 565 c 1
 540 566 l 1
 539 561 528.860351562 590.571289062 491 616 c 0
 424 661 370 670 335 670 c 3
 314 670 300 667 294 666 c 0
 289 665 286 664 284 659 c 0
 270 606 261 443 261 383 c 1
 294 379 380 387 444 397 c 0
 487.405273438 403.782226562 499 426 509 456 c 1
 529 453 l 1
 526 428 524 388 524 347 c 3
 524 310 526 273 528 248 c 1
 502 247 l 1
 500 287 483.743164062 303.095703125 436 321 c 0
 380 342 308 345 261 341 c 1
 262 272 258 136 280 85 c 0
 282 79 283 76 287 74 c 0
 295 58 327 36 361 36 c 3
 424 36 484 73 541 116 c 0
 569.348632812 137.385742188 599 166 615 184 c 1
 635 177 l 1
 624 141 589 19 578 -6 c 1
 569 -3 447 0 320 0 c 3
 205 0 85 -2 41 -9 c 1
 37 12 l 1
 78 20 88.2021484375 21.4697265625 98 67 c 0
 115 146 120 266 120 378 c 3
 120 457 118 544 110 612 c 0
 102 676 98 678 51 689 c 1
 51 707 l 1
EndSplineSet
Position2: "cpsp-1" dx=0 dy=0 dh=50 dv=100
Substitution2: "c2pc-1" e.pcap
Substitution2: "c2sc-1" e.smcp
EndChar
StartChar: M
Encoding: 77 77 2456
Width: 992
Flags: HW
AnchorPoint: "Bottom" 466 -15 basechar 0
AnchorPoint: "Top" 509 625 basechar 0
LayerCount: 2
Back
SplineSet
992 -3 m 1
 955.512695312 -0.8740234375 920.405273438 0.12109375 885.877929688 0.12109375 c 3
 803.939453125 0.12109375 734.928710938 -0.1884765625 637 -10 c 1
 634 13 l 1
 709 30 739.809570312 99.11328125 743 248 c 0
 745.4765625 363.5703125 749 422.942382812 744 500 c 1
 647.391601562 348.856445312 600.334960938 246.3203125 552.206054688 124 c 0
 529.821289062 67.109375 525.856445312 38.71484375 515 0 c 1
 505 0 l 1
 482.608398438 68.486328125 457.174804688 133.586914062 450.987304688 146.5 c 0
 383.901367188 286.499023438 266 463.317382812 237 504 c 1
 221 415.135742188 223.8046875 354.0546875 228 218 c 0
 232.454101562 73.537109375 274 23.9501953125 325 19 c 1
 324 -9 l 1
 267.653320312 1.1650390625 204.09375 -1.9765625 165.661132812 -1.9765625 c 3
 122.247070312 -1.9765625 85.3740234375 -3.34765625 44 -6 c 1
 41 19 l 1
 90 20.98046875 152.780273438 94.05078125 160 218 c 0
 160.889648438 233.274414062 182.999023438 535.36328125 180 562 c 0
 179.602539062 565.530273438 151.782226562 599.711914062 124 627.146484375 c 0
 88.2939453125 662.40625 48.583984375 672.608398438 35 678 c 1
 36 706 l 1
 110 703 234 697 300 702 c 1
 322.754882812 702.629882812 317.725585938 689.997070312 320.122070312 673 c 0
 332 588.770507812 445.975585938 442.760742188 558 262 c 1
 669 479.018554688 777.077148438 679.953125 776 694 c 0
 775.577148438 699.513671875 779.9921875 703.154296875 786 703 c 0
 864 701 925 702 986 703 c 1
 986 679 l 1
 931 671 898.153320312 656.52734375 886 528 c 0
 879.01171875 454.094726562 882.797851562 360.44140625 890 226 c 0
 898.872070312 57.0849609375 948 26.1005859375 992 22 c 1
 992 -3 l 1
EndSplineSet
Fore
SplineSet
966 -3 m 1
 929.512695312 -0.8740234375 894.405273438 0.12109375 859.877929688 0.12109375 c 3
 777.939453125 0.12109375 708.928710938 -0.1884765625 611 -10 c 1
 608 13 l 1
 704 34 713.809570312 51.11328125 717 200 c 0
 719.4765625 315.5703125 723 422.942382812 718 500 c 1
 613.33203125 348.856445312 558.892578125 247.737304688 510.206054688 124 c 0
 487.821289062 67.109375 483.856445312 38.71484375 473 0 c 1
 463 0 l 1
 440.608398438 68.486328125 414.791015625 133.41015625 408.987304688 146.5 c 0
 346.916992188 286.499023438 237.83203125 463.317382812 211 504 c 1
 195 415.135742188 197.8046875 341.0546875 202 205 c 0
 206.454101562 60.537109375 226 30 299 19 c 1
 298 -9 l 1
 241.653320312 1.1650390625 178.09375 -1.9765625 139.661132812 -1.9765625 c 3
 96.2470703125 -1.9765625 59.3740234375 -3.34765625 18 -6 c 1
 15 19 l 1
 110 34 126.780273438 81.05078125 134 205 c 0
 134.889648438 220.274414062 156.999023438 535.36328125 154 562 c 0
 153.602539062 565.530273438 125.782226562 599.711914062 98 627.146484375 c 0
 62.2939453125 662.40625 48.583984375 672.608398438 35 678 c 1
 36 706 l 1
 110 703 208 697 274 702 c 1
 296.754882812 702.629882812 291.874023438 690.016601562 294.122070312 673 c 0
 305.30078125 588.770507812 412.568359375 442.760742188 518 262 c 1
 636.12890625 479.018554688 751.073242188 679.947265625 750 694 c 0
 749.577148438 699.513671875 753.9921875 703.154296875 760 703 c 0
 838 701 899 702 960 703 c 1
 960 679 l 1
 876 670 872.153320312 656.52734375 860 528 c 0
 853.01171875 454.094726562 855.884765625 312.389648438 864 178 c 0
 872.872070312 31.0849609375 910 29.1005859375 966 22 c 1
 966 -3 l 1
EndSplineSet
Position2: "cpsp-1" dx=0 dy=0 dh=50 dv=100
Substitution2: "c2pc-1" m.pcap
Substitution2: "c2sc-1" m.smcp
EndChar
StartChar: V
Encoding: 86 86 2545
Width: 803
Flags: HW
AnchorPoint: "Bottom" 407 -15 basechar 0
AnchorPoint: "Top" 411 662 basechar 0
LayerCount: 2
Fore
SplineSet
312 702 m 1
 317 674 l 1
 280.771484375 669.315429688 281 658.526367188 281 642 c 1
 281 633.904296875 289.245117188 607.41796875 300 578 c 0
 340.828125 466.321289062 372 382 453 220 c 1
 526 354 569.896484375 454.786132812 602 559 c 0
 614.198242188 598.598632812 616 621.666992188 616 640 c 1
 616 667.75 579 674 557 677 c 1
 560 706 l 1
 609.778320312 701.926757812 664.680664062 700.013671875 711.446289062 700.013671875 c 3
 736.001953125 700.013671875 783.010742188 700.693359375 800 702 c 1
 801 679 l 1
 759 671 716.509765625 640.721679688 676 556 c 0
 647.948242188 497.412109375 516.74623138 227.116834658 455 92 c 0
 443.097874674 65.9550501494 430 21 419 -17 c 1
 400 -17 l 1
 387.720703125 13.578125 375.181114594 42.35372606 354.793945312 86 c 0
 270.627929688 266.188476562 157.908203125 495.40234375 146 516 c 0
 72 658 72 662 4 672 c 1
 5 703 l 1
 49.8125 700.302734375 124.407226562 698.915039062 198.28515625 698.915039062 c 3
 240.809570312 698.915039062 282.981445312 699.927734375 312 702 c 1
EndSplineSet
Position2: "cpsp-1" dx=0 dy=0 dh=50 dv=100
Substitution2: "c2pc-1" v.pcap
Substitution2: "c2sc-1" v.smcp
EndChar
StartChar: c
Encoding: 99 99 228
Width: 405
Flags: HMW
AnchorPoint: "Top" 227 485.3 basechar 0
AnchorPoint: "Bottom" 219 -15 basechar 0
LayerCount: 2
Fore
SplineSet
304 286 m 1
 264.864122137 301.461538462 211.022900763 331 164 331 c 3
 133.111883692 331 135 303.465277778 135 270 c 3
 135 188.945560254 177.686749322 45 314 45 c 3
 333.38 45 355.61 48.9375 371 54 c 1
 381 42 l 1
 343 15 290 -15 228 -15 c 3
 180 -15 32 5 32 170 c 3
 32 295 144 411 258 411 c 3
 304 411 347 394 385 373 c 1
 337.75 289.625 339.4375 282.375 304 286 c 1
EndSplineSet
Substitution2: "case-1" C
Substitution2: "pcap-1" c.pcap
Substitution2: "smcp-1" c.smcp
EndChar
StartChar: d
Encoding: 100 100 269
Width: 501
Flags: HMW
AnchorPoint: "TopRight" 497.5 531 basechar 0
AnchorPoint: "Top" 384 734 basechar 0
AnchorPoint: "Bottom" 230 -15 basechar 0
LayerCount: 2
Fore
SplineSet
189 354 m 3
 168 354 156 351 147 345 c 0
 129.127929688 333.084960938 115 312.7265625 115 281 c 3
 115 171 187.361328125 64 297 64 c 3
 307.03515625 64 323 67 323 76 c 1
 325 126.939453125 328 181.1171875 325 291 c 0
 324.786132812 311.419921875 317.454101562 322.991210938 310 326 c 0
 278.311523438 338.790039062 234.118164062 354 189 354 c 3
317 35 m 1
 287.530273438 19.03515625 246.43359375 0 189 0 c 3
 88 0 25 81 25 181 c 3
 25 293 102.702148438 351.668945312 183 387 c 0
 208 398 234 406 261 406 c 3
 287.1171875 406 311.1171875 402.400390625 333 394 c 1
 339 453.309570312 337.252929688 573.705078125 314.252929688 633.705078125 c 0
 306.100585938 654.971679688 304.7890625 656 280 656 c 3
 274 656 268 656 264 656 c 1
 260 668 l 1
 307.640625 683.44140625 409.006835938 727.264648438 450 753 c 1
 465 747 l 1
 459.909179688 721 453.76171875 679.991210938 451 647 c 0
 435.176757812 458 433 188 433 155 c 3
 433 113.135742188 435.766601562 75.6337890625 441 39 c 0
 442 32 446 27 455 29 c 0
 499 33 l 1
 503 14 l 1
 458.538085938 2.25 348.692382812 -33 333 -33 c 3
 318 -33 314.862304688 2.416015625 315 5 c 0
 315.450195312 13.4365234375 316.333007812 27.1396484375 317 35 c 1
EndSplineSet
Substitution2: "case-1" D
Substitution2: "pcap-1" d.pcap
Substitution2: "smcp-1" d.smcp
EndChar
StartChar: l
Encoding: 108 108 497
Width: 245
Flags: HMW
AnchorPoint: "Top" 115 734 basechar 0
AnchorPoint: "TopRight" 270 531 basechar 0
AnchorPoint: "Bottom" 124 -15 basechar 0
LayerCount: 2
Fore
SplineSet
177 274 m 3
 177 223.092773438 177.88410668 160.854293116 181 111 c 0
 186 31 214.977539062 21.5732421875 229 16 c 1
 232 15 242 13 244 11 c 1
 244 -3 l 1
 225.174804688 -3 187.525390625 0 161 0 c 3
 110.037109375 0 50.77734375 -0.6669921875 1 -2 c 1
 -2 11 l 1
 -0.435546875 11.390625 11.9326171875 14.080078125 14 15 c 1
 48.2431640625 30.8935546875 61 34 67 165 c 0
 69.554114053 220.76482349 70 319.809570312 70 338 c 3
 70 451.888671875 63.8662109375 544.514648438 62 568 c 0
 54.85546875 657.907226562 34.46875 656 24 656 c 0
 18 656 l 1
 15 674 l 1
 99.36328125 693.671875 138.727539062 713.9140625 202 744 c 1
 214 733 l 1
 211 725 205.754882812 710.068359375 200 696 c 0
 173 630 177 414 177 274 c 3
EndSplineSet
Substitution2: "case-1" L
Substitution2: "pcap-1" l.pcap
Substitution2: "smcp-1" l.smcp
EndChar
StartChar: s
Encoding: 115 115 709
Width: 355
Flags: HMW
AnchorPoint: "Top" 173 485.3 basechar 0
AnchorPoint: "Bottom" 184 -15 basechar 0
LayerCount: 2
Fore
SplineSet
47 124 m 1
 110.788085938 79.59765625 147.037109375 22 212 22 c 3
 226.700195312 22 240 32.765625 240 67 c 3
 240 101.48046875 200.673828125 131.188476562 177 143 c 0
 125.29296875 171.0234375 43 191.651367188 43 265 c 3
 43 347.5 131.307617188 405 211 405 c 3
 241.39453125 405 268.28125 400.713867188 294 395 c 1
 308 299 l 1
 298 297 l 1
 280.612304688 293.73046875 189.8359375 370 156 370 c 3
 137.188476562 370 128 356.51171875 128 329 c 3
 128 308 148.59765625 286.404296875 176 275 c 0
 233.609375 251.0234375 332 217.53125 332 119 c 3
 332 33.96484375 237.560546875 -12 156 -12 c 3
 112.3203125 -12 77.599609375 -0.857421875 44 14 c 1
 40.75 31.439453125 39.07421875 49.4775390625 37 68 c 0
 34.7451171875 88.1376953125 35.4443359375 103.577148438 35 118 c 1
 47 124 l 1
EndSplineSet
Substitution2: "case-1" S
Substitution2: "pcap-1" s.pcap
Substitution2: "smcp-1" s.smcp
EndChar
StartChar: u
Encoding: 117 117 811
Width: 530
Flags: HMW
AnchorPoint: "Top" 258 485.3 basechar 0
AnchorPoint: "Horn" 473.5 333 basechar 0
AnchorPoint: "Ogonek" 430.65 -3 basechar 0
AnchorPoint: "Bottom" 281 -15 basechar 0
LayerCount: 2
Fore
SplineSet
246 365 m 1
 309.016601562 374.4140625 397.9140625 392.20703125 458 407 c 1
 463 402 l 1
 459 313.091796875 450 218.953125 450 129 c 3
 450 99.2548828125 453.890625 56.052734375 462 47 c 0
 466.736328125 41.712890625 465.275390625 37.529296875 475 38 c 2
 528 41 l 1
 532 26 l 1
 487.913085938 13.3759765625 442.76171875 -24 376 -24 c 3
 374.942382812 -24 373.704101562 -24.1064453125 372 -24 c 0
 340 -21.6923828125 331.654296875 18.5224609375 330 36 c 1
 308.776367188 29.818359375 235.392578125 -16 173 -16 c 3
 127.666992188 -16 100.83984375 8.27734375 88 43 c 0
 77.87109375 70.3916015625 73 99 73 132 c 3
 73 158.077148438 72 223.114257812 74 260 c 1
 74 309.713867188 63.8828125 323 12 323 c 1
 12 323 l 1
 9 335 l 1
 78.765625 359.555664062 146.55859375 384.111328125 204 413 c 1
 213 408 l 1
 212.974609375 377.713867188 198.518554688 242.426757812 198.518554688 178.1796875 c 3
 198.518554688 114.994140625 207.883789062 47 263 47 c 3
 279.830078125 47 305.314453125 48.5673828125 327 59 c 1
 323 106.049804688 331 133.033203125 331 273 c 3
 331 342.274414062 303.892578125 344.8203125 245 352 c 1
 246 365 l 1
EndSplineSet
Substitution2: "case-1" U
Substitution2: "pcap-1" u.pcap
Substitution2: "smcp-1" u.smcp
EndChar
StartChar: z
Encoding: 122 122 2328
Width: 441
Flags: HMW
AnchorPoint: "Top" 214 485.3 basechar 0
AnchorPoint: "Bottom" 218 -15 basechar 0
LayerCount: 2
Fore
SplineSet
360 -1 m 0
 291 1 217.971679688 2 147 0 c 1
 104.01171875 -2 59 -4 18 -6 c 1
 16 6 l 1
 100 100.180664062 182 231.115234375 235 365 c 1
 237 368 232 367 226 367 c 3
 222.928710938 367 200.83203125 365.197265625 145 348 c 0
 85.0634765625 329.5390625 30 285 21 287 c 1
 8 299 l 1
 20 324 35 368 37 399 c 1
 87 393 143 390 198 390 c 3
 272 390 345 393 416 397 c 1
 419 390 l 1
 350.754882812 275.313476562 273.268554688 184.266601562 210 42 c 1
 219 40 229 40 243 40 c 3
 260.635742188 40 301.272460938 52.8212890625 336 74 c 0
 366.12109375 92.369140625 397.35546875 121.033203125 409 143 c 0
 410.688476562 146.185546875 414 145 417 146 c 1
 434 146 l 1
 434 123 413 31 401 -3 c 1
 387 -2 374.005859375 -0.5947265625 360 -1 c 0
EndSplineSet
Substitution2: "case-1" Z
Substitution2: "pcap-1" z.pcap
Substitution2: "smcp-1" z.smcp
EndChar
StartChar: yen
Encoding: 165 165 2326
Width: 463
UnlinkRmOvrlpSave: 1
Flags: HW
LayerCount: 2
Fore
SplineSet
274.890625 169.708984375 m 1
 274.314622807 115.248982948 272.283654214 50.1171047102 283.09765625 -128.499023438 c 0
 285.015173967 -160.170886375 292.119204273 -161.0586431 320.783203125 -167.310546875 c 1
 317.580078125 -195.142578125 l 1
 274.689595576 -186.83690152 222.038207283 -183.218788643 178.485351562 -198.678710938 c 1
 171.08984375 -171.665039062 l 1
 195.610467016 -162.26863286 206.390990071 -155.268664903 207.260742188 -117.220703125 c 0
 207.787638441 -104.621204106 205.843021338 150.767976016 205.118164062 143.750976562 c 1
 204.034116885 150.049303618 155.095264654 248.178623374 87.2695828038 343.999997223 c 0
 76.0701508093 359.82210075 59.2291043945 378.720580661 49 385 c 1
 139 433 l 1
 144.933661013 402.938576204 168.652866704 351.939024868 181.091541944 327.999991964 c 0
 221.31584563 250.585724695 252.239236655 211.848881796 255.486328125 207.837890625 c 1
 299.730787717 303.031969433 321.320964056 356.628741888 331 433 c 1
 345.5 424.066173481 396.25 400.848034565 418 391 c 1
 345.004852928 317.965777551 314.263107929 249.458544383 274.890625 169.708984375 c 1
EndSplineSet
Refer: 778 58113 N 0.29 0 0 1.125 93 98 2
Refer: 778 58113 N 0.29 0 0 1.125 93 -2 2
Position2: "'lnum-2' vertical adjustment" dx=0 dy=190 dh=0 dv=0
EndChar
StartChar: eng
Encoding: 331 331 333
Width: 499
Flags: HW
LayerCount: 2
Fore
SplineSet
329 -267 m 0
 284.360294118 -296 253 -319 194 -319 c 3
 162 -319 112 -308 87 -286 c 1
 88 -259 87 -259 136 -222 c 1
 165.972222222 -237.857142857 189.796296296 -259 219 -259 c 3
 247.822033898 -259 296.27809609 -258.437912348 316 -237 c 0
 342.595265849 -208.090672547 360.595200234 -175.050461911 367 -146 c 0
 373.749647059 -115.385402827 379 -41.9109823322 379 143 c 3
 379 192.5 376.549026451 266.820841347 374 287 c 0
 369 328.328358209 348 358 293 358 c 3
 245 358 203 344.4 170 324 c 1
 168 234.329113924 161 109.430379747 161 71 c 3
 161 27.80589946 195.795590225 30.6204409775 232 27 c 1
 228 -7 l 1
 189 -1 159 4 117 4 c 3
 87 4 51 -1 21 -5 c 1
 18 28 l 1
 55.449092135 34.8089258427 78.318284601 37.5524032329 87 76 c 0
 94 107 95 167 95 199 c 3
 95 219 92.9313485794 287.976104104 86 308 c 0
 77 334 72 336 54 336 c 3
 44 336 41 335 32 335 c 1
 30 364 l 1
 67 371 104 375 154 416 c 1
 175 401 l 1
 170 387.056338028 167 366.915492958 167 346 c 1
 215 377 267 415 330 415 c 3
 403 415 448 375 448 304 c 3
 448 213.433607383 445 119.425469455 445 -84 c 3
 445 -134 432.819094368 -164.880515375 419 -186 c 0
 396.752808989 -220 368.44138087 -241.377070309 329 -267 c 0
EndSplineSet
Substitution2: "smcp-1" eng.smcp
Substitution2: "case-1" Eng
Substitution2: "pcap-1" eng.pcap
EndChar
StartChar: oe
Encoding: 339 339 585
Width: 740
UnlinkRmOvrlpSave: 1
Flags: HW
AnchorPoint: "Top" 387 485.3 basechar 0
AnchorPoint: "Bottom" 400 -15 basechar 0
LayerCount: 2
Fore
SplineSet
268 412 m 3
 377.125 412 462 323 462 204 c 3
 462 82 377.971545797 -9 265 -9 c 3
 137.546627148 -9 28 81 28 200 c 3
 28 316 138.526055845 412 268 412 c 3
216 380 m 3
 191.168718012 380 144 354.750976562 144 258 c 3
 144 174.172851562 187.770798413 19 287 19 c 3
 340.845426803 19 353 106.599609375 353 160 c 3
 353 248.6484375 294.407124013 380 216 380 c 3
EndSplineSet
Refer: 293 101 N 1 0 0 1 321 0 2
Substitution2: "smcp-1" oe.smcp
Substitution2: "case-1" OE
Substitution2: "pcap-1" oe.pcap
EndChar
StartChar: uni018F
Encoding: 399 399 858
Width: 677
Flags: HW
AnchorPoint: "Bottom" 326 -15 basechar 0
AnchorPoint: "Top" 346 695 basechar 0
LayerCount: 2
Fore
SplineSet
343 44.75 m 3
 473.076470588 44.75 534.114705882 157.372881356 547.75 278.25 c 1
 415.398106353 253.269238068 285.181111171 226.148189916 151.5 202.5 c 1
 171.872340426 128.49382716 257.436170213 44.75 343 44.75 c 3
326.5 -24.5 m 3
 225 -24.5 118.872242445 54.5066181322 83.25 140 c 0
 74.5 161 48.25 175 29 176.75 c 1
 29 218.75 l 1
 551.25 318.5 l 1
 551.25 331.526315789 553 346.723684211 553 359.75 c 3
 553 563.525 424.453488372 645.75 279.25 645.75 c 3
 193.289473684 645.75 121.960526316 605.783333334 70.75 564 c 1
 43 595.25 l 1
 116.5 652.029411765 221.5 712.25 342.25 712.25 c 3
 529.5 712.25 636.25 570.057894737 636.25 386.75 c 3
 636.25 80.5 386 -24.5 326.5 -24.5 c 3
EndSplineSet
Position2: "cpsp-1" dx=0 dy=0 dh=50 dv=100
EndChar
StartChar: uni0190
Encoding: 400 400 859
Width: 604
Flags: HW
LayerCount: 2
Fore
SplineSet
190 365 m 1
 112.853249713 393.582951861 75.9912109375 457.149360892 75.9912109375 521.239257812 c 0
 75.9912109375 609.621858825 153.293519379 699 298 699 c 3
 360 699 395 695 454 678 c 0
 495 667 512 673 527 678 c 1
 554 664 l 1
 516 604 517 567 517 545 c 0
 517 525 516 518 484 518 c 9
 469 555 481 593 447 614 c 0
 393 646 350 659 284 659 c 3
 216.570013704 659 174.142578125 603.044654777 174.142578125 539.03515625 c 0
 174.142578125 478.194100338 194 372.698661326 394 373 c 1
 394 360.358891404 393.205581613 348.017136253 391.797851562 336 c 1
 179.519459718 335.595283779 152.13671875 290.419319569 152.13671875 211.142578125 c 0
 152.13671875 127.565218888 221.30931019 33 303 33 c 3
 405 33 487 86 524 175 c 9
 551 167 l 1
 542 120 534 94 522 47 c 1
 459 16 382 -9 289 -9 c 3
 153.121018851 -9 42.4189453125 93.2334738441 42.4189453125 196.389648438 c 0
 42.4189453125 260.252462272 84.8481287359 324.468921415 190 365 c 1
EndSplineSet
Position2: "cpsp-1" dx=0 dy=0 dh=50 dv=100
EndChar
StartChar: uni0191
Encoding: 401 401 860
Width: 566
Flags: HW
LayerCount: 2
Fore
SplineSet
100 613 m 0
 99 640 85 640 12 654 c 1
 17 685 l 1
 72.5693359375 682.208007812 135.545898438 680.974609375 197.612304688 680.974609375 c 3
 357.814453125 680.974609375 511.955078125 689.188476562 517 700 c 1
 533.364257812 690.374023438 538 683 538 662 c 0
 538 640 532.59375 602.985351562 530 534 c 1
 499 531 l 1
 488 567 492.194335938 614.658203125 456 625 c 0
 393 643 292.116210938 650.012695312 211 641 c 0
 193 639 189.889648438 622.005859375 189 604 c 0
 185 523 186 446 186 371 c 1
 250 373 382.090820312 369.120117188 396 371 c 0
 433 376 439 402 455 446 c 1
 489 439 l 1
 480.80078125 408.1328125 477.486328125 377.498046875 477.486328125 346.872070312 c 3
 477.486328125 313.998046875 481.305664062 281.1328125 487 248 c 1
 451 239 l 1
 431 310 436.931640625 322.348632812 396 327 c 0
 352 332 278 331 185 332 c 1
 183.518987342 219 183.857421875 264.909513116 183.857421875 156 c 3
 183.857421875 -45.5189056133 181.691494061 -104.752042573 60 -189 c 0
 21 -216 -16 -241 -75 -241 c 3
 -107 -241 -157 -230 -182 -208 c 1
 -180.775510204 -178.046875 -182 -178.046875 -122 -137 c 1
 -83 -155 -59.650848842 -179 -14 -179 c 3
 123.758644643 -179 105.748046875 -3.25197176855 105.748046875 129 c 3
 105.748046875 269.484864474 102.712540065 539.779746226 100 613 c 0
EndSplineSet
EndChar
StartChar: Uhorn
Encoding: 431 431 2525
Width: 827
UnlinkRmOvrlpSave: 1
Flags: HW
AnchorPoint: "Top" 441 699 basechar 0
AnchorPoint: "Ogonek" 490 11 basechar 0
AnchorPoint: "Bottom" 420 -15 basechar 0
LayerCount: 2
Fore
SplineSet
784 642 m 0
 761.478546471 636.66795393 740.04456668 635.741559345 736 590 c 0
 735.091705198 579.727744928 731.787772597 469.658489995 729 255 c 0
 728 178 703.339117404 117.635735037 662 74 c 0
 608 17 523 -10 412 -10 c 3
 299 -10 220.090904911 16.0950453125 172 62 c 0
 128 104 109 163 109 236 c 0
 109 266.168539326 114 578.915730337 114 594 c 0
 114 638 102 641 20 650 c 1
 25 690 l 1
 55 686.5 103.25 684.75 154.125 684.75 c 0
 205 684.75 258.5 686.5 299 690 c 1
 303 654 l 1
 235 648 204 646.009090158 204 591 c 0
 204 583.958083832 196 287.191616766 196 255 c 0
 196 196 207.684535021 144.717092872 240 109 c 0
 278 67 345 44 453 44 c 3
 479 44 562.229152898 44.763500117 619 100 c 0
 656 136 668.983205589 181.001106759 674 257 c 0
 680 347.893371758 678.9219485 497.10161583 675 589 c 0
 673 635.863636364 645 650.568181818 579 652 c 1
 581 692 l 1
 621.355554481 685.58960168 705.122701859 680.796875 775.796875 680.796875 c 3
 803.822832579 680.796875 835.9140625 687.672407215 835.9140625 719.4453125 c 3
 835.9140625 734.991660599 824.343297353 747.24382169 805.458984375 760.080078125 c 1
 817.774221442 790.721679688 842.434890552 810 869 810 c 3
 906.495832074 810 931.1015625 781.841796875 931.1015625 752.943359375 c 3
 931.1015625 671.477853735 849.800683128 657.57858037 784 642 c 0
EndSplineSet
Position2: "cpsp-1" dx=0 dy=0 dh=50 dv=100
Substitution2: "c2pc-1" uhorn.pcap
Substitution2: "c2sc-1" uhorn.smcp
EndChar
StartChar: uhorn
Encoding: 432 432 831
Width: 526
UnlinkRmOvrlpSave: 1
Flags: HW
AnchorPoint: "Top" 265 465 basechar 0
AnchorPoint: "Bottom" 256 -15 basechar 0
LayerCount: 2
Fore
SplineSet
410 375 m 1
 418.121414362 381.745491074 430.375771951 388.077148438 438 390.077148438 c 1
 462.968647592 396.077148438 493.500976562 408.485648026 493.500976562 441.560546875 c 3
 493.500976562 449.639517266 489.983409974 459.025396022 479.6640625 470.818359375 c 1
 495.576431876 489.781246013 515.380014732 500.219726562 533.796875 500.219726562 c 3
 563.365825233 500.219726562 579.528320312 475.092318034 579.528320312 445.979492188 c 3
 579.528320312 396.08959691 501.426629866 370.359375 439.728515625 365.359375 c 1
 422.413060772 365.359375 414.339204806 368.517835056 410 375 c 1
285 369 m 1
 339.422818792 375.199161305 395.899328859 382.557301496 438 390.077148438 c 1
 445 378 l 1
 431 335.584 423 173.632 423 137 c 3
 423 107 426.284077022 81.1592297825 429 54 c 0
 430 44 433 36 443 36 c 3
 447 36 473 43 493 48 c 1
 499 17 l 1
 463 8 419.410107664 -9.647473084 386 -18 c 0
 382 -19 381 -22 376 -22 c 3
 359 -22 359 0 354 52 c 1
 313 34 236 -11 178 -11 c 3
 140 -11 102.934188969 5.51320688895 86 44 c 0
 75 69 70 95 70 143 c 3
 70 198 73 255 73 312 c 0
 73 322 69 331 59 331 c 3
 49 331 28 319 22 317 c 1
 12 348 l 1
 53 359 107 394 149 422 c 1
 167 406 l 1
 152 336 146 254 146 177 c 3
 146 106 161 44 232 44 c 3
 269 44 322 69 353 85 c 1
 354 154 359 291 359 298 c 3
 359 337 329 337 292 338 c 1
 285 369 l 1
EndSplineSet
Substitution2: "smcp-1" uhorn.smcp
Substitution2: "case-1" Uhorn
Substitution2: "pcap-1" uhorn.pcap
EndChar
StartChar: uni01B7
Encoding: 439 439 882
Width: 618
Flags: HW
AnchorPoint: "Top" 330 699 basechar 0
LayerCount: 2
Fore
SplineSet
375 445 m 1
 467.96484375 442.310546875 580 380.493164062 580 237 c 3
 580 133.544921875 517.874023438 -10 301 -10 c 3
 256.797851562 -10 209.310546875 0.4443359375 170 18 c 0
 150.65234375 26.640625 151 24 141 -4 c 1
 109 0 l 1
 110 69 107 87 81 194 c 1
 115 200 l 1
 133 141 139.509765625 122.54296875 161 100 c 0
 196.271484375 63 270.502929688 33 324 33 c 3
 448.666992188 33 500 138.633789062 500 220 c 3
 500 304 408 436.6875 210 346 c 1
 200 373 l 1
 244.62890625 402.534179688 281.083007812 443.462890625 311 480 c 0
 352.62890625 530.83984375 395.142578125 583.23046875 435 635 c 0
 439 639 l 1
 225 639 l 2
 168 639 127 620 89 545 c 1
 61 563 l 1
 108 672 98 709 125 719 c 1
 145 692 180.990234375 682.872070312 193 682 c 0
 214.05078125 680.470703125 444.818359375 678.100585938 514 680.533203125 c 0
 525.415039062 680.934570312 533.982421875 681.420898438 539 682 c 1
 551 660 l 1
 531.573242188 637.099609375 l 0
 375 445 l 1
EndSplineSet
EndChar
StartChar: uni021C
Encoding: 540 540 1026
Width: 485
UnlinkRmOvrlpSave: 1
Flags: HW
LayerCount: 2
Fore
SplineSet
281 353 m 1
 345.905273438 337.3984375 449 244.3984375 449 151 c 3
 449 -2.5634765625 193.696289062 -161.83984375 57 -175 c 1
 52 -140 l 1
 184.403320312 -128.6640625 356 13.625 356 135 c 3
 356 218.091796875 273.137695312 292.672851562 201 313 c 1
 281 353 l 1
95 294 m 1
 217.060546875 330.731445312 334 406.58984375 334 535 c 3
 334 589.651367188 274.817382812 644 226 644 c 3
 161.032226562 644 84.4619140625 595.852539062 56 515 c 1
 29 523 l 1
 38 570 46 596 58 643 c 1
 111.806640625 673.446289062 177.571289062 698 257 698 c 3
 342.772460938 698 422 615.584960938 422 555 c 3
 422 410.931640625 241.125 285.915039062 109 261 c 1
 95 294 l 1
EndSplineSet
EndChar
StartChar: uni0223
Encoding: 547 547 1036
Width: 505
UnlinkRmOvrlpSave: 1
Flags: HW
LayerCount: 2
Fore
SplineSet
142.771484375 632.404296875 m 1
 136.000137022 620.896141503 128.428710938 604.550367327 128.428710938 581.482421875 c 3
 128.428710938 486.147181428 195.891052506 443.467043117 267.124023438 429 c 0
 377.449604451 406.593452631 473 325.307519939 473 208.216796875 c 3
 473 77.0469727635 378.797699162 -10 253.713867188 -10 c 3
 138.817848132 -10 32 62.454288434 32 199.11328125 c 3
 32 305.616637844 114.681038842 385.9549512 193.999997812 412.166772416 c 1
 208.777417728 421.472852403 223.438476562 425.19921875 237.42578125 427 c 1
 322.020507812 432.524414062 374.314453125 493.683927903 374.314453125 539.088867188 c 3
 374.314453125 580.888505508 368.510036426 610.212428847 358 634.676757812 c 1
 387 646 l 1
 408.098728073 635.650858628 434 599.532139883 434 559.005859375 c 3
 434 490.835593766 374.994140625 429.026367188 288 404.080078125 c 1
 273.189453125 396.063476562 257.568520686 391.954942899 241.2890625 388 c 1
 175.28783652 379.478857291 108.057617188 315.930882685 108.057617188 225.57421875 c 3
 108.057617188 127.971132886 172.297311821 28.341796875 266.314453125 28.341796875 c 3
 380.75820258 28.341796875 393.942382812 138.733310856 393.942382812 186.11328125 c 3
 393.942382812 280.7265625 328.320447516 369.017057706 221.077148438 387.515625 c 0
 135.148225323 402.33764167 72.0576171875 466.737304688 72.0576171875 545.581054688 c 3
 72.0576171875 599.096174571 99.5263996359 628.612213256 117.713867188 643 c 1
 142.771484375 632.404296875 l 1
EndSplineSet
Substitution2: "pcap-1" uni0223.pcap
Substitution2: "smcp-1" uni0223.smcp
EndChar
StartChar: uni0237
Encoding: 567 567 1067
Width: 271
Flags: HMW
AnchorPoint: "Top" 134 485.3 basechar 0
LayerCount: 2
Fore
SplineSet
11 -331 m 1
 13 -305 19 -272 23 -258 c 0
 29 -234 48 -212 58 -176 c 0
 76 -112 80 45 80 74 c 3
 80 87 81 221 80 247 c 0
 78 310 75 326 29 326 c 3
 28 326 24 325 22 325 c 1
 18 338 l 1
 81 359 174 390 215 424 c 1
 235 413 l 1
 215 392 207 363 202 342 c 0
 191 295 189 247 188 200 c 0
 186 72 183 1 183 -129 c 0
 183 -165 179 -188 170 -200 c 0
 150 -227 117 -250 88 -269 c 0
 64 -285 39 -296 32 -338 c 1
 11 -331 l 1
EndSplineSet
EndChar
StartChar: uni0241
Encoding: 577 577 1072
Width: 514
Flags: HW
LayerCount: 2
Fore
SplineSet
389 37 m 1
 382 -7 l 1
 296 5 153 3.2001953125 72 -11 c 1
 64 37 l 1
 168.625976562 50.2705078125 171 49.6865234375 171 123 c 3
 171 231.00390625 224.916015625 232.244140625 297 282.352539062 c 0
 332.760742188 307.211914062 389 369.955078125 389 433 c 3
 389 554.989257812 314.428710938 639 215 639 c 3
 145.62109375 639 86.916015625 596 46 553 c 1
 14 587 l 1
 66.666015625 641 158.059570312 701 251 701 c 3
 307.176757812 701 478 679.456054688 478 470 c 3
 478 332.310546875 352.649414062 278.134765625 312.365234375 244 c 0
 285.4453125 221.189453125 270 188.342773438 270 119 c 3
 270 40.8564453125 265.366210938 47.77734375 389 37 c 1
EndSplineSet
EndChar
StartChar: uni0242
Encoding: 578 578 1073
Width: 348
Flags: HW
LayerCount: 2
Fore
SplineSet
172 66 m 3
 172 45.517578125 178.987154447 39.5341796875 219 34 c 0
 235 30 253 29 267 28 c 1
 262 -6 l 1
 220.192166759 -0.5458984375 173.023731333 4 128 4 c 3
 103.943359375 4 67.056640625 -1 43 -5 c 1
 41 28 l 1
 52 29 67.154296875 30.287109375 78 33 c 0
 93.5615234375 36.892578125 103 51.724609375 103 70 c 3
 103 128.288085938 137.194335938 144.490234375 176 156 c 0
 215.970703125 166.338867188 251 193.333984375 251 252 c 3
 251 320.69280599 192.285714286 368 114 368 c 3
 76.6421052632 368 45.0315789474 352 23 336 c 1
 7 362 l 1
 40.1111111111 389 97.568627451 419 156 419 c 3
 197.328778039 419 323 400.015140086 323 278 c 3
 323 202.75 250 149.125976562 214 138 c 0
 183.868164062 126.14453125 172 105.94140625 172 66 c 3
EndSplineSet
EndChar
StartChar: uni0294
Encoding: 660 660 1101
Width: 262
Flags: HW
LayerCount: 2
Fore
SplineSet
160 283 m 3
 160 206.666666667 161.065849207 88.5894040254 166 54 c 0
 168.183759552 39.025648788 187.153477109 35.7116307227 198 33 c 0
 214 29 232 28 246 27 c 1
 241 -7 l 1
 202 -1 158 4 116 4 c 3
 86 4 40 -1 10 -5 c 1
 8 28 l 1
 19 29 34.1817100136 30.1778373948 45 33 c 0
 68 39 80.1108857894 48.0777325584 83 76 c 0
 88 131.414141414 91 217.732323232 91 287 c 3
 91 376.025948344 160.105936136 379.848716935 222 418.352539062 c 0
 243.999999408 432.038569856 274 461.772250265 274 530 c 3
 274 642.514332634 202 720 106 720 c 3
 67 720 34 704 11 688 c 1
 -5 714 l 1
 29 741 88 771 148 771 c 3
 197 771 346 751.974146076 346 567 c 3
 346 466.487275562 271.557824116 407.238980513 223.365234375 380 c 0
 184.902691122 358.260548524 160 336.809455544 160 283 c 3
EndSplineSet
EndChar
StartChar: uni0371
Encoding: 881 881 1150
Width: 440
UnlinkRmOvrlpSave: 1
Flags: HW
AnchorPoint: "Top" 118 465 basechar 0
LayerCount: 2
Fore
SplineSet
92 170 m 1
 178 170 l 2
 281 170 338.934570312 158.42578125 389 216 c 1
 399 217 410 209 414 205 c 1
 414 189 353.00390625 128.9140625 294 126 c 0
 172.495117188 120 157.049804688 121 86 119 c 1
 92 170 l 1
85 -116 m 3
 85 -144 93 -148 104 -148 c 3
 134 -148 163 -91.44140625 167 -81 c 1
 202 -92 l 1
 178 -146.203125 135 -205 75 -205 c 3
 43 -205 22 -177 22 -91 c 3
 22 69.3935546875 61.599609375 226.513671875 66 400 c 1
 66 400 138 426 156 410 c 1
 133.579101562 202.740234375 85 -9.2294921875 85 -116 c 3
EndSplineSet
EndChar
StartChar: uni0373
Encoding: 883 883 1152
Width: 377
UnlinkRmOvrlpSave: 1
Flags: HW
LayerCount: 2
Fore
SplineSet
235.600585938 619 m 1
 215.180664062 344 203.334960938 130.0078125 203.334960938 94 c 3
 203.334960938 62.9892578125 202.865234375 30.3515625 202.600585938 -4 c 1
 182.106445312 -3.3271484375 124.528320312 -0.8056640625 121.600585938 9 c 1
 129.908203125 27.181640625 135.895507812 41.44140625 148.600585938 109 c 0
 168.124023438 307.599609375 184.146484375 488.258789062 194.600585938 621 c 1
 194.600585938 623 235.600585938 622 235.600585938 619 c 1
250.600585938 681 m 3
 371.6171875 681 367.638671875 684.041015625 387.200195312 690.799804688 c 1
 416 671.599609375 l 1
 389.166992188 606.448242188 355.178710938 534.05859375 351.600585938 449 c 1
 311.600585938 455.400390625 l 1
 319.600585938 506.184570312 329.600585938 555.015625 345.600585938 605.799804688 c 1
 252.436523438 605.799804688 138.200195312 612 101.600585938 612 c 3
 71.23046875 612 60.6005859375 591.396484375 60.6005859375 584 c 3
 60.6005859375 531.665039062 67.283203125 483.35546875 74.80078125 459.200195312 c 1
 50.80078125 439.200195312 l 1
 22.447265625 470.084960938 2.6005859375 553.236328125 2.6005859375 596 c 3
 2.6005859375 657.745117188 52.3837890625 681 250.600585938 681 c 3
EndSplineSet
EndChar
StartChar: Delta
Encoding: 916 916 2395
AltUni2: 002206.ffffffff.0
Width: 682
Flags: HW
AnchorPoint: "Bottom" 338 -15 basechar 0
AnchorPoint: "Top" 352 699 basechar 0
LayerCount: 2
Fore
SplineSet
454.5 59.2998046875 m 1
 513.87890625 59.5244140625 534.5 59.2998046875 536.5 65.2998046875 c 1
 481.580078125 199.086914062 379.48828125 426.046875 333.5 543.799804688 c 1
 312.372070312 507.208984375 156.251953125 196.260742188 108.5 75.2998046875 c 1
 118.5 63.2998046875 123.969726562 57.7900390625 215.5 59.2998046875 c 9
 454.5 59.2998046875 l 1
12 -5 m 1
 20.5 27.2998046875 46.451171875 58.6533203125 57 80 c 0
 160.27734375 289 244.142578125 470 319 640 c 0
 335.463867188 677.388671875 331 679 335 712 c 9
 378 712 l 9
 383 685 377.799804688 680.927734375 392 642 c 0
 474.073242188 417 522.873046875 281 636 62 c 0
 656.85546875 21.6279296875 659.5 31.7998046875 675 -4 c 1
 644.291253472 0.250766878382 506.778928135 2.27079066363 364.492942458 2.27079066363 c 0
 205.521788485 2.27079066363 40.5917644625 -0.250766878382 12 -5 c 1
EndSplineSet
Position2: "cpsp-1" dx=0 dy=0 dh=50 dv=100
Substitution2: "c2pc-1" delta.pcap
Substitution2: "c2sc-1" delta.smcp
EndChar
StartChar: Sigma
Encoding: 931 931 2509
Width: 626
Flags: HW
AnchorPoint: "Top" 310 699 basechar 0
AnchorPoint: "Bottom" 307 -15 basechar 0
LayerCount: 2
Fore
SplineSet
18 1 m 1
 8 28 l 1
 47 49 79.6767578125 85.4267578125 105 116 c 0
 168.08984375 190.967773438 231.771484375 266.940429688 295.001953125 343.299804688 c 1
 232.919921875 421.344726562 158.747070312 511 99.9716796875 588.299804688 c 0
 75.330078125 620.576171875 49.5 652.299804688 23 659 c 1
 28 690 l 1
 100.521055818 686.355725838 186.588460485 684.969176485 267.955928091 684.969176485 c 0
 409.86328558 684.969176485 537.47511282 689.186564497 554 693 c 1
 565.145145837 683.247997393 569.133414459 677.741599913 569.133414459 669.087387512 c 0
 569.133414459 652.893580795 555.168856119 625.677987617 548 539 c 1
 518 536 l 1
 507 572 526 619 490 630 c 1
 438.703345846 641.860847667 357.361504552 648.076864413 279.205080995 648.076864413 c 0
 243.783639014 648.076864413 209.016485872 646.800086697 177.997070312 644.193359375 c 1
 240.469726562 565.895507812 302.563476562 487.598632812 365.102539062 409.299804688 c 0
 377.26171875 394.141601562 394.323242188 375.299804688 410.703125 367.299804688 c 1
 410.703125 339.299804688 l 1
 394.173828125 331.461914062 380.607421875 318.322265625 371.6640625 307.299804688 c 0
 296.84375 213.670898438 223.921875 129.947265625 150 41 c 1
 228.26916423 41 307.598956516 39 386 39 c 0
 408.404296875 39 437.5 43.2998046875 470 58 c 0
 526.760742188 83.673828125 539 101 578 177 c 1
 606 170 l 1
 590 104 579 62 567 0 c 1
 418.446420524 -0.773710049693 287.995461185 2.4830933189 163.612260931 2.4830933189 c 0
 119.627247387 2.4830933189 72.4064380862 2.08995072445 18 1 c 1
EndSplineSet
Position2: "cpsp-1" dx=0 dy=0 dh=50 dv=100
Substitution2: "c2pc-1" sigma.pcap
Substitution2: "c2sc-1" sigma.smcp
EndChar
StartChar: Upsilon
Encoding: 933 933 2539
Width: 680
Flags: HW
AnchorPoint: "Top" 327 699 basechar 0
AnchorPoint: "Bottom" 339 -15 basechar 0
LayerCount: 2
Fore
SplineSet
390 379 m 0
 384.549262873 345.20542981 382.399696327 307.581501745 382.399696327 269.343110405 c 0
 382.399696327 202.352455344 385.60150538 133.475872086 389 80 c 0
 394 41 414 36 495 32 c 1
 490 -11 l 1
 438.5 -4 390.75 1 342.75 1 c 0
 294.75 1 246.5 -2.33333333333 194 -11 c 1
 182 31 l 1
 261 40.88 292 47.84 298 100 c 0
 300.345685637 120.39182714 305.005528049 164.056588975 304.377320882 211.999997878 c 0
 303.483216121 280.23613464 301.305266598 355.831563274 296 380 c 0
 275 473 212 624 88 624 c 3
 67 624 46 616 23 600 c 1
 0 629 l 1
 18 655 71 700 112 700 c 3
 287 700 311 498 344 371 c 1
 376 498 400 700 575 700 c 3
 616 700 668 655 686 629 c 1
 663 600 l 1
 640 616 619 624 598 624 c 3
 474 624 405 474 390 379 c 0
EndSplineSet
Position2: "cpsp-1" dx=0 dy=0 dh=50 dv=100
Substitution2: "c2pc-1" upsilon.pcap
Substitution2: "c2sc-1" upsilon.smcp
EndChar
StartChar: uni03D0
Encoding: 976 976 1164
Width: 454
UnlinkRmOvrlpSave: 1
Flags: HW
LayerCount: 2
Fore
SplineSet
104 286 m 1
 151 344 199 389 265 389 c 3
 369 389 419 315 419 217 c 3
 419 110 350 -9 233 -9 c 3
 107 -9 52 68 52 198 c 3
 52 392 136 701 312 701 c 3
 353 701 376 676 376 641 c 3
 376 527 180 462 31 417 c 1
 39 447 l 1
 157 482 333 552 333 633 c 3
 333 655 323 670 307 670 c 3
 198 670 128 321 128 173 c 3
 128 101 151 28 219 28 c 3
 273 28 337 92 337 216 c 3
 337 282 325 350 258 350 c 3
 201 350 144 298 104 250 c 1
 104 247 104 284 104 286 c 1
EndSplineSet
Substitution2: "pcap-1" b.pcap
Substitution2: "smcp-1" b.smcp
EndChar
StartChar: Upsilon1
Encoding: 978 978 2540
Width: 697
Flags: HW
AnchorPoint: "Top" 335 699 basechar 0
AnchorPoint: "Bottom" 347 -15 basechar 0
LayerCount: 2
Fore
SplineSet
398 379 m 0
 383 286 393 164 404 80 c 0
 409 41 429 36 510 32 c 1
 505 -11 l 1
 402 3 314 9 209 -17 c 1
 197 25 l 1
 276 39 313 52 313 100 c 0
 313 150 313 339 304 380 c 0
 283 473 220 624 96 624 c 3
 75 624 54 616 31 600 c 1
 8 629 l 1
 26 655 78 700 119 700 c 3
 294 700 319 498 352 371 c 1
 381 498 403 700 563 700 c 3
 635 700 674 654 674 595 c 3
 674 535 647 511 609 511 c 3
 597 511 581 511 561 525 c 1
 560 550 568 562 586 586 c 1
 612 571 625 589 625 603 c 3
 625 618 599 624 586 624 c 3
 474 624 412 474 398 379 c 0
EndSplineSet
Position2: "cpsp-1" dx=0 dy=0 dh=50 dv=100
EndChar
StartChar: omega1
Encoding: 982 982 607
Width: 710
UnlinkRmOvrlpSave: 1
Flags: HW
LayerCount: 2
Fore
SplineSet
107 263 m 1
 104.200195312 249 91.94140625 231 75 231 c 3
 51.8037109375 231 39 259.760742188 39 285 c 3
 39 310.666015625 56.90625 357.681640625 165 392.240234375 c 0
 211.862304688 407.22265625 277.163085938 412 366 412 c 3
 452.34765625 412 537.641601562 401 588 401 c 3
 622.234375 401 656 408.729492188 663 454 c 1
 673.76953125 451.666992188 680.23046875 449.333007812 691 447 c 1
 666 351.318359375 654.030273438 345.822265625 555 345 c 0
 409.212890625 343.790039062 322.37109375 348.348632812 176 343 c 0
 144.172851562 341.836914062 82 331.955078125 82 287 c 3
 82 275.009765625 93.27734375 268.142578125 107 263 c 1
457 369 m 1
 531.145507812 360.889648438 647 265.478515625 647 160 c 3
 647 65.7666015625 566.82421875 -4 475 -4 c 3
 374.137695312 -4 346.080078125 93.4384765625 346.080078125 189 c 3
 346.080078125 202.634765625 349.607421875 216.078125 352 229 c 1
 370.88671875 240 409.30078125 255 425 243 c 1
 429 221 435 208.954101562 435 187 c 3
 435 64.5849609375 378.091796875 0 285 0 c 3
 202.798828125 0 133 63.90234375 133 146 c 3
 133 249.364257812 209 343.116210938 303 365 c 1
 320.806640625 362 331.193359375 360 349 357 c 1
 263.813476562 332.834960938 205 270.666015625 205 188 c 3
 205 87.2958984375 265.55859375 48 304 48 c 3
 358.1640625 48 374.833007812 98 389 142 c 1
 405 88 411.836914062 40 461 40 c 3
 528.904296875 40 574 96.599609375 574 158 c 3
 574 249.30859375 545.123046875 318.973632812 426 357 c 1
 457 369 l 1
EndSplineSet
Substitution2: "smcp-1" pi.smcp
Substitution2: "pcap-1" pi.pcap
EndChar
StartChar: uni03D7
Encoding: 983 983 1167
Width: 502
UnlinkRmOvrlpSave: 1
Flags: HW
LayerCount: 2
Fore
SplineSet
442.255859375 125.01953125 m 1
 462.161132812 119.676757812 l 1
 461.161132812 113.96484375 458.703125 103.185546875 458.703125 83.978515625 c 0
 458.703125 21.455078125 494 -36.4384765625 494 -101.279296875 c 3
 494 -163.241210938 457.276367188 -208.01953125 403.815429688 -208.01953125 c 3
 357.168945312 -208.01953125 331 -182 323.971679688 -168.2421875 c 1
 334.315429688 -152.299804688 l 1
 342.559570312 -155.299804688 352.770507812 -155.72265625 362.258789062 -155.72265625 c 3
 391.211914062 -155.72265625 434.936523438 -127.829101562 434.936523438 -34.47265625 c 3
 434.936523438 -10.5029296875 433.454101562 17.6806640625 428.420898438 41.8193359375 c 2
 419 87 l 1
 428 98 432.778320312 109.979492188 442.255859375 125.01953125 c 1
EndSplineSet
Refer: 1176 1008 N 1 0 0 1 20 0 2
EndChar
StartChar: uni03D8
Encoding: 984 984 1168
Width: 820
Flags: HW
AnchorPoint: "Top" 401 695 basechar 0
AnchorPoint: "Middle" 404.697 364.853 basechar 0
AnchorPoint: "Bottom" 397 -151 basechar 0
LayerCount: 2
Fore
SplineSet
446.641601562 -5.8779296875 m 1
 447.020507812 -38.1171875 445.76953125 -71.2255859375 448 -105 c 0
 449.859375 -132.473632812 473.36328125 -131.349609375 538 -139 c 1
 537 -162 l 1
 451.913085938 -151 348.29296875 -149 275 -163 c 1
 270 -140 l 1
 340.713867188 -128.3828125 366.249023438 -138.151367188 369 -98 c 0
 370.94921875 -69.0673828125 370.896484375 -38.0185546875 371.678710938 -5.5048828125 c 1
 446.641601562 -5.8779296875 l 1
EndSplineSet
Refer: 2472 79 N 1 0 0 1 0 0 2
Position2: "cpsp-1" dx=0 dy=0 dh=50 dv=100
EndChar
StartChar: uni03DB
Encoding: 987 987 1171
Width: 670
Flags: HW
LayerCount: 2
Fore
SplineSet
49 148 m 3
 49 240.928710938 92.3955078125 307.729492188 148.381835938 353 c 0
 193.8359375 389.75390625 232.884765625 400 340 400 c 3
 443.479492188 400 459.6640625 392 584 392 c 3
 612.099609375 392 625 397 625 424 c 1
 634 425 640 426 649 427 c 1
 653 409 658 400.384765625 658 382 c 3
 658 323.364257812 585.228515625 305 526 305 c 3
 375.400390625 305 294.594726562 313 257 313 c 3
 157.340820312 313 97 267.346679688 97 199 c 3
 97 107.576171875 154.176757812 89 217 89 c 3
 236.72265625 89 248 92 268 92 c 3
 352.201171875 92 364 41.9248046875 364 -11 c 3
 364 -92.029296875 299.461914062 -155 259 -155 c 3
 230.8125 -155 212.596679688 -127.041992188 205 -94 c 1
 220.028320312 -79.154296875 239.80078125 -73.6259765625 260.19140625 -73.6259765625 c 3
 273.934570312 -73.6259765625 287.958984375 -76.1376953125 301 -80 c 1
 315.611328125 -69 318 -57.4013671875 318 -41 c 3
 318 -4.7646484375 304.826171875 1 235 1 c 3
 124.700195312 1 98.6123046875 18.4384765625 79 43.5361328125 c 0
 60.447265625 67.2783203125 49 98.3193359375 49 148 c 3
EndSplineSet
EndChar
StartChar: afii10145
Encoding: 1039 1039 120
Width: 752
UnlinkRmOvrlpSave: 1
Flags: HMW
LayerCount: 2
Fore
SplineSet
300 33 m 1
 483 33 l 1
 483 0 l 1
 433.567382812 0 424.4453125 -54 414 -240 c 1
 375 -240 l 1
 362.5 -54 348.958007812 0 300 0 c 1
 300 33 l 1
EndSplineSet
Refer: 45 1055 N -1 0 0 -1 774 682 2
Position2: "cpsp-1" dx=0 dy=0 dh=50 dv=100
EndChar
StartChar: afii10067
Encoding: 1074 1074 76
Width: 427
Flags: HW
LayerCount: 2
Fore
SplineSet
225 223 m 0
 251 227.25 271 254.875 271 291 c 1
 271 317 256 381 215 381 c 1
 208 381 175 380 169 380 c 0
 156 377 157 362 155 352 c 0
 150 287 150 224.063492063 149 222 c 1
 217 222 224 222 225 223 c 0
214 202 m 1
 210 204 152 203 148 203 c 1
 148 152.444444444 148 103.952380952 150 73 c 0
 151 45 154 37 168 32 c 0
 174 30 221 25 236 25 c 1
 285 25 311 55.5675675676 311 103 c 1
 311 153 284 202 214 202 c 1
30 22 m 1
 42 23 75 25 77 55 c 0
 79 56.0353982301 81 107.805309735 81 172 c 1
 81 258.126582278 76 332.974683544 76 334 c 0
 75 359 74 373 63 378 c 0
 58 379 34 382 29 383 c 1
 33 408 l 1
 41 408 73 402 105 402 c 1
 144 402 198 408 235 408 c 1
 314 408 349 343 349 306 c 3
 349 264.072289157 317 242.060240964 279 219 c 1
 339 207 389 165 389 109 c 1
 389 41.5925925926 329 -3 238 -3 c 1
 199 -3 149 1 107 1 c 1
 72 1 38 -2 32 -2 c 1
 30 22 l 1
EndSplineSet
EndChar
StartChar: afii10074
Encoding: 1080 1080 83
Width: 524
UnlinkRmOvrlpSave: 1
Flags: HW
AnchorPoint: "Bottom" 258 -15 basechar 0
AnchorPoint: "Top" 273 465 basechar 0
LayerCount: 2
Fore
SplineSet
138 48 m 1
 224.286399211 161.569479294 306.4296956 279.828550529 386 401 c 1
 404 364 l 1
 316.823451515 245.727282196 231.594571765 126.804258666 152 6 c 1
 138 48 l 1
379 343 m 0
 378.060774003 372.151808245 377.4375 370.5 376 378 c 1
 386 401 l 1
 391.773408696 400.959467175 397.599706423 400.9375 403.52734375 400.9375 c 3
 431.349311624 400.9375 459.734073459 404.412759031 489 412 c 1
 493 388 l 1
 467 381 458.955129336 378.005138158 456 352 c 0
 446 264 444.756482945 85.0088563706 452 55 c 0
 459 26 476 24 492 21 c 1
 492 21 489 5 489 -2 c 1
 447 7 385 8 336 -4 c 1
 336 -2 331 12 330 20 c 1
 355 28 371.020532654 29.8774524752 374 59 c 0
 383.690801867 153.721910047 382.46028947 235.599123765 379 343 c 0
153 58 m 0
 157.405356172 34.1872777154 158 34.5405405405 161 30 c 1
 161 30 152 13 152 6 c 1
 137.948918284 5.35761363096 122.824971975 5.0187188666 108.388121044 5.0187188666 c 3
 81.5423508536 5.0187188666 55.8528607142 2.7506218944 34 -2 c 1
 34 -2 31 16 30 25 c 1
 49 30 72.0403928426 29.9958498578 75 59 c 0
 85 157 83.939010915 337.092747608 80 356 c 0
 75 380 55 381 33 384 c 1
 35 409 l 1
 93 404 140 399 203 407 c 1
 205 383 l 1
 192 380 162.345339644 379.133902008 160 366 c 0
 155 338 146.467929049 93.3084711922 153 58 c 0
EndSplineSet
EndChar
StartChar: afii10090
Encoding: 1096 1096 99
Width: 640
Flags: HW
LayerCount: 2
Fore
SplineSet
498.540039062 48.2890625 m 0
 507.92058131 144.608724984 508.409625709 227.992844498 503.5703125 336.55859375 c 0
 502.320251623 371.477539062 484.137337772 370.640625 466.134765625 379.387695312 c 1
 469.336914062 401.794921875 l 1
 516.356016558 392.094726562 563.416219668 392.17578125 613.818359375 405.826171875 c 1
 618 381.611328125 l 1
 592.495117188 374.231445312 584.260220071 372.214321745 581.387695312 346.34375 c 0
 571.643554688 258.5859375 570.265650583 78.2035587135 577.073242188 48.5888671875 c 0
 583.848632812 19.1142578125 600.6640625 18.0927734375 617.08984375 15.0908203125 c 1
 617.08984375 15.0908203125 613.967773438 -1.025390625 614.463867188 -7.9599609375 c 1
 593.778061513 -3.41673363765 567.610866511 -0.7900390625 540.53515625 -0.7900390625 c 0
 512.22011681 -0.7900390625 126.663533314 -0.933183033591 95.3340124331 -0.933183033591 c 0
 69.3145650793 -0.933183033591 44.4993085456 -3.08054013831 23.25390625 -7.798828125 c 1
 23.25390625 -7.798828125 19.728515625 10.541015625 18.73828125 19.45703125 c 1
 37.7119140625 24.7314453125 61.1425408197 23.7436003003 64.1923828125 53.2841796875 c 0
 74.310546875 151.288085938 72.3848129111 330.850955352 68.603515625 349.920898438 c 0
 63.859375 373.846679688 43.5869140625 375.33203125 21.779296875 378.489257812 c 1
 23.6689453125 403.361328125 l 1
 78.5950895381 398.09375 123.414815877 393.48046875 182.388671875 401.137695312 c 1
 183.782226562 376.922851562 l 1
 173.454111469 373.938476562 151.658528329 372.745433779 149.208984375 360.094726562 c 0
 134.125921449 298.694623 139.140725881 125.352517184 141.74609375 46.671875 c 0
 142.7315742 34.5187000354 176.400422463 28.572265625 211.083007812 28.572265625 c 3
 246.792755063 28.572265625 283.582519031 35.2452844175 286.540039062 48.2890625 c 0
 295.92058131 144.608724984 296.409625709 227.992844498 291.5703125 336.55859375 c 0
 290.320251623 371.477539062 272.137337772 370.640625 254.134765625 379.387695312 c 1
 257.336914062 401.794921875 l 1
 301.101681554 392.094726562 344.904704961 392.17578125 391.818359375 405.826171875 c 1
 396 381.611328125 l 1
 377.46132241 374.231445312 371.475641011 372.214321745 369.387695312 346.34375 c 0
 359.643554687 257.112278837 358.265650582 73.7008585604 365.073242188 43.5888671875 c 0
 371.541968933 32.964907319 400.220276045 28.0908203125 429.39453125 28.0908203125 c 3
 462.19264791 28.0908203125 495.620473257 35.3120500736 498.540039062 48.2890625 c 0
EndSplineSet
EndChar
StartChar: afii10097
Encoding: 1103 1103 106
Width: 428
Flags: HW
LayerCount: 2
Fore
SplineSet
286.766 208.147 m 1
 288.119 250.948 289.146 308.448 281.772 346.091 c 0
 276.128 371.58 263.058 373.251 249.757 374.646 c 1
 187.630803832 373.694313143 153.262695312 352.591171882 153.262695312 313.67578125 c 3
 153.262695312 252.251442266 189.08221468 206.923828125 257.685546875 206.923828125 c 3
 269.221852479 206.923828125 275.092729187 207.830064777 286.766 208.147 c 1
405 395.136 m 1
 405 371.002 l 1
 368.81 369.85 360.938 362.487 355.864 330.543 c 1
 350.519 221.016 351.649 178.697 357.955 53.9707 c 1
 361.015 28.9385 371.523 23.9697 402.938 21.9229 c 1
 398.261 -4.83887 l 1
 346.171 4.7002 290.105 3.54785 238.358 -6.64746 c 1
 233.267 21.6807 l 1
 263.664 26.5615 275.797 29.7051 278.201 55.2812 c 0
 282.813 95.8184 284.329 132.085 286.766 180.868 c 1
 267.429 180.131 261.634 178.468 242.152 178.068 c 1
 241.152 178.068 239.619 177.67 237.149 177.767 c 1
 180.924 52.6719 110.565 -29.1201 9.42383 -19.4922 c 1
 4.74707 4.64258 l 1
 71.7939 3.55859 99.7119 75.7275 161.233 191.575 c 1
 116.765 208.822 78.6221 242.389 78.6221 291.218 c 3
 78.6221 351.353 143.111 399.08 219.074 399.08 c 1
 267.846 399.08 286.998 393.984 329.876 393.984 c 1
 359.65 393.984 378.46 394.56 405 395.136 c 1
EndSplineSet
EndChar
StartChar: afii10107
Encoding: 1114 1114 116
Width: 676
UnlinkRmOvrlpSave: 1
Flags: HW
LayerCount: 2
Fore
SplineSet
490 197 m 0
 467.880597015 198 433 198 433 198 c 1
 433 149.992840834 434 102.890893211 435 73 c 0
 436 45 441 40 453 32 c 0
 458.130434783 30 499.173913043 25 512 25 c 3
 561 25 587 60.5810546875 587 115 c 1
 587 156.414141414 557 192.03030303 490 197 c 0
401 195 m 1
 151 195 l 1
 150 146.94725817 150 97.8732257872 153 58 c 0
 154 26 183 27 201 21 c 1
 201 21 198 4 198 -3 c 1
 143 7 80 8 34 -2 c 1
 34 -2 31 16 30 25 c 1
 49 30 72 30 75 59 c 0
 85 157 87 338 80 356 c 0
 75 380 55 381 33 384 c 1
 35 409 l 1
 93 404 140 399 203 407 c 1
 205 383 l 1
 192 380 163 379 160 366 c 1
 155 346.410791999 155 278.828446151 153 223 c 1
 401 224 l 1
 401 195 l 1
496 382 m 1
 490 382 465 380 454 377 c 0
 441 373 441 359 440 349 c 0
 435 287 435 227.254449728 434 225 c 1
 483.877862595 225 521.748091603 228 555 222 c 0
 615 210.981818182 665 172.418181818 665 121 c 1
 665 46.599609375 605 -3 514 -3 c 3
 477.954545455 -3 431.742424242 1 392 1 c 3
 357 1 323 -2 317 -2 c 1
 315 22 l 1
 327 23 362 26 362 55 c 0
 362 57.0703125 366 107.805664062 366 172 c 1
 366 258.658203125 361 333.96875 361 335 c 0
 360 360 360 376 348 379 c 0
 343 380 319 383 314 384 c 1
 318 409 l 1
 326 409 358 403 390 403 c 3
 422 403 465 405 495 409 c 1
 496 382 l 1
EndSplineSet
EndChar
StartChar: uni0596
Encoding: 1430 1430 1245
Width: 0
Flags: HW
AnchorPoint: "HbBottom" 257 0 mark 0
LayerCount: 2
Fore
SplineSet
240.436523438 -69.0048828125 m 1
 252.43359375 -139.4921875 277.172851562 -170.873046875 337.267578125 -190.983398438 c 1
 319.943359375 -227.831054688 l 1
 261.728515625 -201.78125 221.291992188 -164.205078125 216.487304688 -72.9677734375 c 1
 240.436523438 -69.0048828125 l 1
EndSplineSet
EndChar
StartChar: uni0597
Encoding: 1431 1431 1246
Width: 0
Flags: HW
AnchorPoint: "HbTop" 263 628 mark 0
LayerCount: 2
Fore
SplineSet
195.857421875 728.130859375 m 0
 190.725702551 731.263987452 189.7265625 737.246231996 189.7265625 742.2734375 c 0
 189.7265625 747.301287519 191.769848912 752.328137567 195.857421875 756.416015625 c 0
 215.795421875 768.873015625 234.163421875 784.931015625 248.857421875 809.416015625 c 0
 252.944299963 813.502921883 257.973149952 815.546875 263 815.546875 c 0
 268.026850048 815.546875 273.054700067 813.50392186 277.142578125 809.416015625 c 0
 289.749578125 788.003015625 307.871578125 770.080015625 331.142578125 755.416015625 c 0
 335.231151229 751.327137597 337.2734375 746.301287519 337.2734375 741.2734375 c 0
 337.2734375 736.246231996 336.472325206 729.913973144 331.142578125 727.130859375 c 0
 305.999578125 713.999859375 293.999578125 693.999859375 278.142578125 674.130859375 c 0
 274.537685659 669.612963003 269.026850048 668 264 668 c 0
 258.973149952 668 253.325318427 669.220971994 249.857421875 674.130859375 c 0
 233.000421875 697.999859375 219.000421875 713.999859375 195.857421875 728.130859375 c 0
EndSplineSet
EndChar
StartChar: uni0598
Encoding: 1432 1432 1247
Width: 0
Flags: HW
AnchorPoint: "HbTopLeft" 88 628 mark 0
LayerCount: 2
Fore
SplineSet
21 769 m 3
 88.6571428571 769 134.114285714 702 169 702 c 3
 182 702 195 708.346153846 195 717 c 3
 195 734.5 183.088235294 742.666666667 168 752 c 1
 168 767.888888889 177.5 778 187 778 c 1
 208.84 765.054794521 226 745.573529412 226 715 c 3
 226 683.620689655 193.485294118 663 159 663 c 3
 93.3 663 52.6285714286 731 13 731 c 3
 -2.78947368421 731 -12 722 -12 713 c 3
 -12 698.976190476 3 686.696969697 13 682 c 1
 13 671.785714286 5.5 659.714285714 -2 656 c 1
 -17.8245614035 661.346795435 -43 686.9375 -43 716 c 3
 -43 748.388888889 -12 769 21 769 c 3
EndSplineSet
EndChar
StartChar: afii57797
Encoding: 1464 1464 161
Width: 0
Flags: HW
AnchorPoint: "HbBottom" 282 0 mark 0
LayerCount: 2
Fore
SplineSet
298 -104 m 1
 298.608695652 -151.842519685 304.104194973 -186.666984498 312 -228 c 1
 300 -245 l 1
 280.409179688 -242.2746875 259.79296875 -240.382578125 246 -227 c 1
 260.165841239 -189.450761555 264.939034598 -147.142258075 265 -104 c 1
 298 -104 l 1
EndSplineSet
Refer: 162 1463 N 1 0 0 1 0 0 2
EndChar
StartChar: afii57664
Encoding: 1488 1488 127
Width: 486
Flags: HW
AnchorPoint: "HbTop" 258.68 619.44 basechar 0
AnchorPoint: "HbBottom" 254 0 basechar 0
AnchorPoint: "HbTopLeft" 92.68 619.44 basechar 0
LayerCount: 2
Fore
SplineSet
53.3603515625 122.559570312 m 1
 76.650390625 144.599609375 126.40625 151.559570312 162.400390625 153.879882812 c 1
 132.240234375 132.240234375 l 1
 128.194335938 155.581054688 125.686523438 181.799804688 125.686523438 208.3828125 c 3
 125.686523438 272.435430599 138.946640523 338.991138426 180.040039062 359.120117188 c 1
 195 351 l 1
 174.30568646 332.274053104 163.446289062 297.934259462 163.446289062 260.387695312 c 3
 163.446289062 223.944335938 175.155756331 185.17578125 199.400390625 150.799804688 c 1
 202.41796875 106.94140625 166.9140625 49.7880859373 146.040039062 0 c 1
 67.7998046875 0 l 1
 44.3603515625 -12.7197265625 l 1
 29 -2.3203125 l 1
 53.3603515625 122.559570312 l 1
368.719726562 556.919921875 m 1
 391.619260484 552.095940589 434.404237855 539.43277273 451.879882812 524.959960938 c 1
 449.903815234 481.209680997 442.705723053 422.216927794 424.719726562 410.83984375 c 1
 390.747729319 400.008660395 337.733047679 325.18760878 332.240234375 242.959960938 c 1
 309.799804688 264.48046875 l 1
 324.359556728 353.39478235 336.839924095 387.973413606 362.83984375 439.83984375 c 1
 362.83984375 439.83984375 362.83984375 439.83984375 376.759765625 435.200195312 c 1
 375.396484375 429.400390625 360.211914062 429.400390625 359.360351562 429.400390625 c 1
 335 434.485929642 297.879882812 435.503208705 286.280273438 472.120117188 c 1
 315.919921875 590.719726562 l 1
 335.080078125 585.919921875 l 1
 368.719726562 556.919921875 l 1
84.6796875 586.959960938 m 1
 90.1199612883 584.639648438 95.5597262115 583.48046875 101 581.16015625 c 1
 96.1435546883 562.969726562 92.8798828125 553.294921875 92.8798828125 533.599609375 c 3
 92.8798828125 477.026850912 259.870377381 351.281994881 359.525390625 250.51953125 c 0
 410.196289062 199.28553514 440.859375 152.299836339 440.859375 76.25390625 c 0
 440.859375 33.94921875 428.154296875 12.2880859375 413.280273438 -13.919921875 c 1
 409.87647512 -10.4404296875 407.323720192 -6.9599609375 403.919921875 -3.48046875 c 1
 405.528320312 22.34375 409.407205701 56.6568450638 388.428710938 80.0400390625 c 0
 291.643064085 187.919921875 224.685730955 230.097557814 132.189453125 331.759765625 c 0
 92.3662109375 375.529296875 52.70703125 414.39453125 52.70703125 470.959960938 c 3
 52.70703125 506.690429688 61.2880859375 543.963867188 84.6796875 586.959960938 c 1
EndSplineSet
EndChar
StartChar: afii57666
Encoding: 1490 1490 129
Width: 355
Flags: HW
AnchorPoint: "HbMiddle" 140 284 basechar 0
AnchorPoint: "HbTopLeft" 106.68 619.44 basechar 0
AnchorPoint: "HbBottom" 184 0 basechar 0
AnchorPoint: "HbTop" 192 619.44 basechar 0
LayerCount: 2
Fore
SplineSet
22.0400390625 -11.599609375 m 1
 44.080078125 111.280273438 l 1
 113.6796875 136.034610486 183.280273438 188.148253811 252.879882812 238.959960938 c 1
 255.16015625 191.959960938 l 1
 181.914744189 75.6471429779 118.969859612 27.6824907257 34.2802734375 -22.6796875 c 1
 22.0400390625 -11.599609375 l 1
103.240234375 590.440429688 m 1
 109.679812223 588.120117188 116.119992465 585.799804688 122.559570312 583.48046875 c 1
 127.200195312 576.51953125 131.602741539 565.594528298 138.799804688 563.759765625 c 0
 192.590686441 550.046741303 247.501405727 535.190804612 281.120117188 497.48046875 c 1
 258.919921875 369.879882812 l 1
 258.919921875 271.697071472 286.338716103 184.033355053 324.040039062 105.719726562 c 1
 296.879882812 -16.400390625 l 1
 285.360351562 -12.759765625 l 1
 251.719726562 80.0400390625 227.360351562 179.799804688 227.360351562 294.639648438 c 0
 227.360351562 330.983192994 229.336914062 368.680227431 233.061523438 407.46875 c 1
 174.962890625 416.825738251 117.3203125 425.56662851 90.48046875 459.240234375 c 1
 77.7197265625 492.040053093 89.3203125 541.240241391 103.240234375 590.440429688 c 1
EndSplineSet
EndChar
StartChar: afii57667
Encoding: 1491 1491 130
Width: 467
Flags: HW
AnchorPoint: "HbTopLeft" 63.68 619.44 basechar 0
AnchorPoint: "HbBottom" 240 0 basechar 0
AnchorPoint: "HbMiddle" 221 284 basechar 0
AnchorPoint: "HbTop" 238 619.44 basechar 0
LayerCount: 2
Fore
SplineSet
110.799804688 570.719726562 m 3
 229.450511105 570.719726562 377.360351562 565.934570312 415.440429688 557.959960938 c 1
 423.719796717 548.6796875 433.035173788 539.400390625 440.280273438 530.120117188 c 1
 430.30859375 493.826046172 421.64453125 458.0518362 414.737304688 422.440429688 c 1
 399.811523438 412.09213362 386.60546875 401.765759698 375.3203125 391.440429688 c 1
 384.599609374 264.006835938 384.599609374 147.928710938 381.120117188 68.4404296875 c 1
 364.646574576 40.3329120125 347.144193963 11.1441959501 333.759765625 -13.7197265625 c 1
 314.759765625 -4.6396484375 l 1
 326.360351562 138.409179688 337.959960938 276.526367188 337.959960938 386.280273438 c 1
 342.572246491 403.660475443 348.107441009 419.110638717 352.719726562 434.559570312 c 1
 270.116087512 439.973632812 180.09838763 442.29296875 134.559570312 441.51953125 c 1
 98.5996093753 441.51953125 42.9199218751 447.993926919 24.3603515625 481.440429688 c 1
 58 602.040039062 l 1
 77.16015625 596.240234375 l 1
 77.16015625 596.240234375 102.6796875 570.719726562 110.799804688 570.719726562 c 3
EndSplineSet
EndChar
StartChar: afii57670
Encoding: 1494 1494 133
Width: 310
Flags: HW
AnchorPoint: "HbTopLeft" 72.68 619.44 basechar 0
AnchorPoint: "HbBottom" 150 0 basechar 0
AnchorPoint: "HbTop" 166 620.6 basechar 0
LayerCount: 2
Fore
SplineSet
119.759765625 575.360351562 m 1
 163.83984375 566.080078125 246.200195312 541.719726562 279.83984375 513.879882812 c 1
 268.240234375 474.475241934 257.799804688 435.070601053 249.6796875 396.759765625 c 1
 194 408.987489104 171.959960938 392.175173522 154.559570312 367.719726562 c 1
 145.280273439 301.599609375 198.639648438 149.639648438 200.959960938 68.4404296875 c 1
 184.442914089 40.6750184417 165.860041388 11.8415684522 152.440429688 -12.7197265625 c 1
 136.599609375 -4.6396484375 l 1
 127.457802426 139.688146359 102.36672635 349.30853291 119.83984375 389.400390625 c 1
 128.633138021 399.738828595 165.272069783 441.097554464 172.599609375 449.959960938 c 1
 170.465965358 452.416910384 193.641006582 427.288187608 191.080078125 429.120117188 c 1
 184.4453125 432.727539062 110.546875 447.458007812 106.400390625 448.83984375 c 1
 82.0400390625 454.639648438 44.919921875 455.799804688 33.3203125 497.559570312 c 1
 64.9599609375 610.16015625 l 1
 86.1201171875 604.360351562 l 1
 119.759765625 575.360351562 l 1
EndSplineSet
EndChar
StartChar: afii57674
Encoding: 1498 1498 137
Width: 485
Flags: HW
AnchorPoint: "HbTopLeft" 64.68 619.44 basechar 0
AnchorPoint: "HbBottom" 225 0 basechar 0
AnchorPoint: "HbMiddle" 228 284 basechar 0
AnchorPoint: "HbTop" 223 619.44 basechar 0
LayerCount: 2
Fore
SplineSet
188.182617188 570.520507812 m 3
 270.628580183 570.520507812 378.209193378 562.295898438 405.3203125 557.959960938 c 1
 409.959960938 504.599609375 413.440429688 451.240234375 415.759765625 399.040039062 c 1
 421.559570312 269.120117188 423.879882812 146.16015625 423.879882812 39.4404296875 c 0
 423.879882812 -30.16015625 422.719726562 -93.9599609375 421.559570312 -147.3203125 c 1
 404.739110542 -180.724772904 386.867206088 -214.129233307 373.200195312 -243.080078125 c 1
 356.360351562 -233.16015625 l 1
 370.280273438 18.4518365781 383.040039062 259.431902544 377.240234375 433.080078125 c 1
 285.88127113 441.200195312 186.92335 443.51953125 136.879882812 443.51953125 c 3
 100.686941803 443.51953125 45.2402343751 449.669565699 26.6796875 481.440429688 c 1
 60.3203125 602.040039062 l 1
 77.48046875 596.240234375 l 1
 111.075195312 567.278320313 98.6748046879 570.520507812 188.182617188 570.520507812 c 3
EndSplineSet
EndChar
StartChar: afii57688
Encoding: 1512 1512 151
Width: 494
Flags: HW
AnchorPoint: "HbTopLeft" 62.68 619.44 basechar 0
AnchorPoint: "HbBottom" 251 0 basechar 0
AnchorPoint: "HbMiddle" 230 284 basechar 0
AnchorPoint: "HbTop" 223 619.44 basechar 0
LayerCount: 2
Fore
SplineSet
106.639648438 567.240234375 m 1
 257.592541379 566.080078125 322.363250494 561.545639106 356.599609375 544.040039062 c 0
 384.440429688 528.959960938 457.523621897 417.599444072 448.240234375 187.919921875 c 0
 446.600585938 147.353515625 447.080078125 109.040039062 444.759765625 77.7197265625 c 1
 429.263980509 46.8419695239 411.830916498 14.8993076935 399.240234375 -11.7197265625 c 1
 384.200195312 -4.6396484375 l 1
 390.19921875 78.9248046873 398.045898438 156.7734375 398.045898438 224.030273438 c 3
 398.045898438 314.699872578 391.15174419 386.381273986 326.83984375 419.3203125 c 0
 300.413001828 433.293945312 231.174260634 440.200195312 130.559570312 440.200195312 c 3
 95.617840192 440.200195312 42.2462484853 448.249669631 24.3603515625 479.440429688 c 1
 58 602.040039062 l 1
 76 596.240234375 l 1
 106.639648438 567.240234375 l 1
EndSplineSet
EndChar
StartChar: uni2023
Encoding: 8227 8227 2026
Width: 614
Flags: HW
LayerCount: 2
Fore
SplineSet
555 306.641 m 9
 555 276 l 17
 520 256 406.973 263.594 356 245.313 c 0
 137.841 205.319 171.251 96.8509 73.7197 8.78027 c 1
 52.1201 23.8203 l 17
 78.4402 121.58 102.61 383.548 37.0801 561.5 c 1
 69.96 569.021 l 17
 118.84 486.301 160.28 337.61 325.64 332.141 c 0
 415.653 328.91 517.4 321.212 555 306.641 c 9
EndSplineSet
EndChar
StartChar: uni2053
Encoding: 8275 8275 2044
Width: 461
Flags: HW
LayerCount: 2
Fore
SplineSet
18.1337890625 197.353515625 m 1
 59.5590081072 246.757108202 135.882304415 292.837890625 146.349609375 292.837890625 c 3
 188.410171478 292.837890625 277.513514783 244.052734375 318.451171875 244.052734375 c 3
 335.702865409 244.052734375 384.016232321 270.514671544 409.108398438 299.82421875 c 1
 443 282.5390625 l 1
 406.907131961 236.137354023 340.203171967 180.052734375 322.063476562 180.052734375 c 3
 281.851962863 180.052734375 179.503476034 229.391601562 141.46484375 229.391601562 c 3
 120.688110122 229.391601562 72.1480350131 198.770413704 50.168 179.645 c 1
 18.1337890625 197.353515625 l 1
EndSplineSet
EndChar
StartChar: uni2055
Encoding: 8277 8277 2045
Width: 454
Flags: HW
LayerCount: 2
Fore
SplineSet
324 395 m 1
 345 397 371 364 373 345 c 1
 320 291 310 297 251 244 c 1
 338 251 335 272 412 278 c 1
 419 272 422 261 422 248 c 0
 422 233 418 216 411 208 c 1
 336 207 332 218 253 223 c 1
 320 166 333 183 392 133 c 1
 394 112 361 86 342 84 c 1
 288 137 294 147 241 206 c 1
 248 119 269 122 275 45 c 1
 269 38 258 35 245 35 c 0
 230 35 213 39 205 46 c 1
 204 121 215 125 220 204 c 1
 163 137 180 124 130 65 c 1
 109 63 83 96 81 115 c 1
 134 169 144 163 203 216 c 1
 116 209 119 188 42 182 c 1
 35 188 32 199 32 212 c 0
 32 227 36 244 43 252 c 1
 118 253 122 242 201 237 c 1
 134 294 121 277 62 327 c 1
 60 348 93 374 112 376 c 1
 166 323 160 313 213 254 c 1
 206 341 185 338 179 415 c 1
 185 422 196 425 209 425 c 0
 224 425 241 421 249 414 c 1
 250 339 239 335 234 256 c 1
 291 323 274 336 324 395 c 1
EndSplineSet
EndChar
StartChar: afii61248
Encoding: 8453 8453 174
Width: 803
Flags: HW
LayerCount: 2
Fore
SplineSet
591 363 m 3
 705 363 771 267 771 181 c 3
 771 86 700 -8 591 -8 c 3
 494 -8 409 69 409 171 c 3
 409 297 518 363 591 363 c 3
573 323 m 3
 517.772727273 323 483 258.061538462 483 189 c 3
 483 110.006369427 538.873015873 30 611 30 c 3
 667.30952381 30 697 102.03649635 697 169 c 3
 697 262.426666667 630.93442623 323 573 323 c 3
283 589 m 1
 268 603 222 638 190 638 c 3
 138.37804878 638 107 584 107 506 c 3
 107 428 156.411764706 366 227 366 c 3
 257 366 279 381 304 402 c 1
 328 367 l 1
 294 344 253 320 204 320 c 3
 161 320 36 351 36 490 c 3
 36 599 121 686 221 686 c 3
 267 686 313 664 332 648 c 1
 324 610 328 612 283 589 c 1
EndSplineSet
Refer: 383 8260 N 1 0 0 1 160 81 2
EndChar
StartChar: uni2219
Encoding: 8729 8729 2092
Width: 318
Flags: HW
LayerCount: 2
Fore
SplineSet
70 218 m 0
 70 272 114 307 159 307 c 0
 214 307 248 262 248 217 c 0
 248 170 211 129 159 129 c 0
 113 129 70 165 70 218 c 0
EndSplineSet
EndChar
StartChar: integral
Encoding: 8747 8747 466
Width: 164
Flags: HW
LayerCount: 2
Fore
SplineSet
112 297 m 3
 112 263.34375 113 -64.806640625 113 -85 c 3
 113 -193 101.520507812 -261.221679688 60 -296 c 0
 25.3330078125 -323 -7.5556640625 -348 -60 -348 c 3
 -78.5419921875 -348 -107.513671875 -337 -122 -315 c 1
 -121 -288 -122 -288 -73 -251 c 1
 -44.47265625 -269 -21.7958984375 -293 6 -293 c 3
 38.296875 -293 35.94140625 -200.5546875 43 -90 c 0
 44 -72.439453125 49 248.926757812 49 270 c 3
 49 303.391601562 48 628.96484375 48 649 c 3
 48 757 59.4794921875 825.221679688 101 860 c 0
 135.666992188 887 168.555664062 912 221 912 c 3
 239.541992188 912 268.513671875 901 283 879 c 1
 282 852 283 852 234 815 c 1
 205.47265625 833 182.795898438 857 155 857 c 3
 122.703125 857 130.353515625 764.18359375 118 654 c 0
 116.266601562 636.6640625 112 317.897460938 112 297 c 3
EndSplineSet
EndChar
StartChar: uni2303
Encoding: 8963 8963 2107
Width: 329
Flags: HW
LayerCount: 2
Fore
SplineSet
173 721 m 1
 219 635 245 544 309 464 c 1
 287 454 l 1
 250 492 216 541 164 541 c 3
 112 541 79 492 42 454 c 1
 20 464 l 1
 83.5328467153 544 110.335766423 635 156 721 c 1
 173 721 l 1
EndSplineSet
EndChar
StartChar: spade
Encoding: 9824 9824 756
Width: 663
Flags: HW
LayerCount: 2
Fore
SplineSet
341.134765625 -1.314453125 m 0
 341.134765625 -1.0869140625 314.483398438 -0.8603515625 314.483398438 -0.6337890625 c 0
 310.672851562 -0.609375 306.954101562 -0.5986328125 303.325195312 -0.5986328125 c 0
 202.173828125 -0.5986328125 170.676757812 -9.345703125 158.10546875 -9.345703125 c 0
 153.8515625 -9.345703125 151.765625 -0.984375 149.880859375 1.6962890625 c 0
 146.265625 6.84765625 149.84375 22.005859375 162.135742188 21.138671875 c 0
 165.015625 20.935546875 167.8828125 20.8349609375 170.734375 20.8349609375 c 0
 247.326171875 20.8349609375 312.715820312 78.6416015625 312.715820312 181.665039062 c 0
 312.715820312 184.446289062 312.66796875 187.250976562 312.571289062 190.077148438 c 0
 312.247070312 199.555664062 303.741210938 208.684570312 295.43359375 193.944335938 c 0
 267.26171875 143.963867188 215.540039062 116.41796875 164.509765625 116.41796875 c 0
 131.537109375 116.41796875 98.8515625 127.918945312 72.994140625 152.299804688 c 0
 51.64453125 172.4296875 32.900390625 206.774414062 32.900390625 248.0546875 c 0
 32.900390625 282.807617188 46.185546875 322.479492188 82.3837890625 362.723632812 c 0
 151.125 439.147460938 305.90625 509.064453125 324.225585938 666.418945312 c 1
 324.225585938 666.418945312 323.580078125 677.256835938 331.61328125 677.256835938 c 2
 331.796875 677.25390625 l 1
 332.006835938 677.256835938 l 2
 353.541015625 677.256835938 312.981445312 585.18359375 487.760742188 443.333984375 c 0
 543.083984375 398.43359375 630.657226562 340.90234375 630.657226562 247.45703125 c 0
 630.657226562 176.336914062 575.15625 116.377929688 497.67578125 116.377929688 c 0
 406.094726562 116.377929688 364.481445312 198.862304688 363.6484375 199.537109375 c 0
 361.611328125 201.185546875 359.75390625 201.998046875 358.119140625 201.998046875 c 0
 353.391601562 201.998046875 350.51953125 195.204101562 350.51953125 182.16015625 c 0
 350.51953125 87.8828125 407.431640625 20.84765625 492.798828125 20.84765625 c 0
 504.6640625 20.84765625 514.684570312 15.1435546875 514.696289062 5.94140625 c 0
 514.700195312 1.763671875 511.254882812 -9.3564453125 505.078125 -9.3564453125 c 0
 500.674804688 -9.3564453125 423.340820312 -1.314453125 341.134765625 -1.314453125 c 0
EndSplineSet
EndChar
StartChar: diamond
Encoding: 9830 9830 282
Width: 619
Flags: HW
LayerCount: 2
Fore
SplineSet
303.391601562 678.125 m 0
 315.719726562 678.125 381.647460938 535.466796875 564.49609375 352.197265625 c 0
 566.719726562 349.96875 569.115234375 347.401367188 569.115234375 343.270507812 c 0
 569.115234375 328.759765625 440.458984375 228.978515625 312.416992188 -2.9228515625 c 0
 310.322265625 -6.7138671875 306.982421875 -10.6796875 303.08203125 -10.6796875 c 0
 300.265625 -10.6796875 297.158203125 -8.61328125 294.016601562 -2.9228515625 c 0
 164.142578125 232.295898438 37.400390625 327.814453125 37.400390625 342.240234375 c 0
 37.400390625 358.642578125 154.798828125 446.1640625 294.016601562 670.517578125 c 0
 296.497070312 674.514648438 299.004882812 678.125 303.391601562 678.125 c 0
EndSplineSet
EndChar
StartChar: uni26A2
Encoding: 9890 9890 2135
Width: 690
UnlinkRmOvrlpSave: 1
Flags: HMW
LayerCount: 2
Fore
SplineSet
251.443359375 -33.97265625 m 3
 184.151483133 -33.97265625 118.726092129 -42.4640183291 100 -58.888671875 c 1
 81 -59 l 1
 81 24 l 1
 101 24 l 1
 115.416912499 10.7395453574 187.624327267 4 251.87890625 4 c 3
 312.133953087 4 377.624327267 4 441.87890625 4 c 3
 502.133953087 4 563.360476934 10.5961022541 590 24 c 1
 611 24 l 1
 611 -57 l 1
 590 -57.123046875 l 1
 563.201260711 -41.5314045433 501.526996602 -33.97265625 441.443359375 -33.97265625 c 3
 374.151483133 -33.97265625 311.526996602 -33.97265625 251.443359375 -33.97265625 c 3
EndSplineSet
Refer: 2143 9906 N 1 0 0 1 0 0 2
Refer: 2143 9906 N 1 0 0 1 190 0 2
EndChar
StartChar: uni26AA
Encoding: 9898 9898 2142
Width: 500
Flags: HW
LayerCount: 2
Fore
SplineSet
247.75 77.599609375 m 3
 141.928710938 77.599609375 44.349609375 165.243164062 44.349609375 287.299804688 c 3
 44.349609375 413.783203125 145.125976562 493.400390625 258.549804688 493.400390625 c 3
 371.033203125 493.400390625 455.650390625 401.560546875 455.650390625 289.099609375 c 3
 455.650390625 174.887695312 367.290039062 77.599609375 247.75 77.599609375 c 3
257.650390625 125.700195312 m 3
 337.911132812 125.700195312 390.849609375 188.392940815 390.849609375 273.799804688 c 3
 390.849609375 373.857138756 326.668945312 448.900390625 238.75 448.900390625 c 3
 166.927734375 448.900390625 110.049804688 383.279800666 110.049804688 302.599609375 c 3
 110.049804688 202.868639043 175.33984375 125.700195312 257.650390625 125.700195312 c 3
EndSplineSet
EndChar
StartChar: a.pcap
Encoding: 57347 57347 1
Width: 449
Flags: HW
AnchorPoint: "Bottom" 220 -15 basechar 0
AnchorPoint: "Top" 230 485.3 basechar 0
LayerCount: 2
Back
SplineSet
161.972421875 151.808789062 m 1
 187.884335937 145.5165625 206.901523438 148.324023437 234.9990625 150.136992188 c 1
 225.415859375 174.068828125 211.186640625 200.109726562 196.881054688 213.794023438 c 1
 178.157070312 172.698515625 166.80421875 154.037148437 161.972421875 151.808789062 c 1
234.107382812 -4.8102734375 m 1
 234.107382812 -4.8102734375 233.761523438 0.7175 234.183554687 6.4425 c 1
 249.651445312 13.410703125 268.137734624 26.025304034 263.781015625 48.386875 c 0
 261.716171875 61.446484375 261.268867188 76.546875 249.286679687 102.825390625 c 1
 215.088242188 106.31 178.623164063 107.095703125 142.680820313 102.303320312 c 1
 136.849765625 92.3733984368 134.465350264 75.0462211018 135.972226563 73.8870703125 c 0
 130.761601563 46.3744921875 137.305351563 22.3205859375 171.616914063 14.1625390625 c 1
 170.11859375 -3.769609375 l 1
 146.182304688 -0.9370703125 102.391835938 -0.436875 68.431015625 -0.436875 c 3
 51.1694140625 -0.436875 34.9193359375 -1.05984375 23.0061328125 -2.2184765625 c 1
 23.0061328125 -2.2184765625 21.6101953125 13.86375 21.1009375 13.9025 c 1
 51.97125 19.84953125 60.5230780266 43.8118491318 74.857109375 74.1140625 c 0
 125.1071875 177.980195312 176.859467926 265.892189058 205.938867188 364.767265625 c 0
 211.649648438 381.637929687 215.422148437 398.30015625 214.901992188 400.892539063 c 1
 247.911289062 400.63421875 l 1
 248.749296875 387.725546875 252.934835542 378.845323276 255.619023438 370.940625 c 0
 273.87171875 326.721015625 338.957170631 173.92794982 390.03953125 56.2885546875 c 0
 404.328085938 23.516015625 422.338085937 16.35625 426.688125 11.607109375 c 1
 426.688125 11.607109375 424.9696875 3.3417578125 424.0990625 -2.7280078125 c 1
 405.810742188 -1.094453125 381.703789063 -0.3839453125 357.9784375 -0.3839453125 c 3
 321.257226562 -0.3839453125 253.479609375 -1.532421875 234.107382812 -4.8102734375 c 1
EndSplineSet
Fore
SplineSet
161.972421875 151.808789062 m 1
 187.884335937 145.5165625 206.901523438 148.324023437 234.9990625 150.136992188 c 1
 225.415810272 176.700446009 211.186518612 205.604881294 196.880859375 220.793945312 c 1
 181.156979759 189.525643822 166.804191716 163.192225404 161.972421875 151.808789062 c 1
234.107382812 -4.8102734375 m 1
 234.107382812 -4.8102734375 233.761523438 0.7175 234.183554687 6.4425 c 1
 249.651445312 13.410703125 267.33886695 25.8843740177 263.781015625 48.386875 c 0
 261.716171875 61.446484375 261.268867188 76.546875 249.286679687 102.825390625 c 1
 215.088242188 106.31 178.623164063 107.095703125 142.680820313 102.303320312 c 1
 136.849765625 92.3733984368 136.314910546 75.7570634731 135.972226563 73.8870703125 c 0
 130.761561591 45.4529784157 137.30536179 20.59340409 171.6171875 12.162109375 c 1
 170.11859375 -3.769609375 l 1
 146.182304688 -0.9370703125 102.391835938 -0.436875 68.431015625 -0.436875 c 3
 51.1694140625 -0.436875 34.9193359375 -1.05984375 23.0061328125 -2.2184765625 c 1
 23.0061328125 -2.2184765625 21.6099377225 12.8659978261 21.1005859375 12.90234375 c 1
 51.9711003277 18.9481593568 59.6615725938 43.6988929422 74.857109375 74.1140625 c 0
 125.1071875 177.980195312 177 282 205.938867188 364.767265625 c 0
 211.817373602 381.580221663 215.422148437 398.30015625 214.901992188 400.892539063 c 1
 247.911289062 400.63421875 l 1
 248.749296875 387.725546875 252.433867214 378.657094356 255.619023438 370.940625 c 0
 273.87171875 326.721015625 340.64626528 174.647078379 390.03953125 56.2885546875 c 0
 404.328223005 22.0493030724 422.33839577 14.5691070378 426.688476562 9.607421875 c 1
 426.688476562 9.607421875 426.296979787 2.49532175579 426.098632812 -2.7275390625 c 1
 407.257250844 -1.09431104238 382.421273337 -0.3839453125 357.9784375 -0.3839453125 c 3
 321.257226562 -0.3839453125 253.479609375 -1.532421875 234.107382812 -4.8102734375 c 1
EndSplineSet
EndChar
StartChar: h.pcap
Encoding: 57354 57354 422
Width: 540
Flags: HW
AnchorPoint: "Top" 274 485.3 basechar 0
AnchorPoint: "Bottom" 280 -15 basechar 0
LayerCount: 2
Back
SplineSet
42.9216015625 388.105625 m 1
 80.2848828125 383.57609375 127.395078125 385.030195313 172.597070312 385.030195313 c 1
 196.175898438 385.030195313 221.47671875 386.067773438 250.65875 387.862460937 c 1
 251.35359375 364.971679687 l 1
 238.02359375 364.45359375 223.068901725 354.85307762 217.352070312 337.7753125 c 0
 209.619023438 320.66796875 206.692578125 260.021601562 204.81828125 214.649101563 c 1
 214.646875 214.310976562 326.547851562 213.510429688 342.588046875 214.778984375 c 1
 342.179921875 239.551640625 336.65583091 288.714064579 336.369140625 301.5446875 c 0
 331.940546875 340.68875 330.155 345.105625 295.239140625 357.778046875 c 1
 296.06 384.39421875 l 1
 324.714140625 381.124375 363.660625 383.238632812 392.79328125 383.238632812 c 1
 425.964960937 383.238632812 471.039296875 384.924257812 497.190390625 385.591835938 c 1
 498.754414063 361.069921875 l 1
 463.452304688 350.824648437 465.529001829 346.195400708 461.20796875 310.980429688 c 0
 458.553203125 295.4059375 454.213671875 295.846875 454.213671875 263.5065625 c 3
 454.213671875 126.084648438 459.960503841 94.2003619613 470.235195313 65.3305078125 c 0
 480.652382813 30.903046875 487.89125 26.7510546875 500.70984375 20.0413671875 c 1
 500.70984375 20.0413671875 498.635507813 -8.371171875 499.276679688 -5.6867578125 c 1
 469.257617188 -1.92703125 438.661835938 0.1684375 406.980507813 0.1684375 c 1
 373.507304687 0.1684375 338.9121875 -0.8090625 302.666679687 -4.9996875 c 1
 302.666679687 -4.9996875 299.440625 22.8788671875 299.704570312 21.6369921875 c 1
 334.383828125 29.94828125 334.77734375 45.1806640625 338.263671875 79.7138671875 c 0
 341.755905802 114.305569182 342.8478125 129.961484375 342.588046875 165.420859375 c 1
 329.608125 165.458007812 230.50390625 166.056640625 204.09765625 166.452148438 c 1
 202.66015625 135.424804688 206.484707797 91.403742809 209.017265625 67.176640625 c 0
 213.8675 35.056796875 223.078476563 26.7838671875 252.621210937 16.9980859375 c 1
 252.621210937 16.9980859375 251.79890625 -2.715625 251.36625 -7.0740234375 c 1
 211.004648437 -2.122109375 175.183085937 0.4538671875 139.851054687 0.4538671875 c 1
 107.76640625 0.4538671875 76.127265625 -1.3507421875 43.02921875 -5.945078125 c 1
 43.02921875 -5.945078125 40.8022265625 16.6702734375 40.7429296875 17.9925390625 c 1
 52.677890625 22.310078125 79.350199802 33.1681505599 82.8357421875 64.8505078125 c 0
 90.3940234375 124.27046875 90.1246875 204.209804688 90.1246875 265.691523437 c 3
 90.1246875 285.203085937 86.7080709055 318.923849859 81.6140234375 326.020390625 c 0
 72.496875 349.01875 68.9612890625 353.466796875 42.4889453125 363.126835937 c 1
 42.9216015625 388.105625 l 1
EndSplineSet
Fore
SplineSet
42.921875 396.10546875 m 1
 80.28515625 393.576171875 127.395507812 393.030273438 172.596679688 393.030273438 c 1
 196.17578125 393.030273438 221.4765625 394.067382812 250.659179688 395.862304688 c 1
 251.353515625 372.971679688 l 1
 238.0234375 372.453125 223.069335938 362.853515625 217.352539062 345.775390625 c 0
 209.619140625 328.66796875 206.692382812 270.021484375 204.818359375 224.649414062 c 1
 214.646484375 224.310546875 326.547851562 223.510742188 342.587890625 224.779296875 c 1
 342.1796875 249.551757812 338.812007045 298.792018963 337.369140625 311.544921875 c 0
 332.940429688 350.688476562 330.155273438 359.10546875 295.239257812 371.778320312 c 1
 296.059570312 396.39453125 l 1
 324.713867188 393.124023438 363.66015625 393.23828125 392.79296875 393.23828125 c 1
 425.96484375 393.23828125 471.0390625 394.923828125 497.190429688 395.591796875 c 1
 498.754882812 373.0703125 l 1
 468.452148438 363.82421875 463.169921875 355.955078125 458.208007812 321.98046875 c 0
 455.924804688 306.34765625 454 281.33984375 454 249 c 3
 454 142.578125 460.350718756 82.6582163881 469.235351562 53.330078125 c 0
 476 31 487.891601562 24.7509765625 500.709960938 18.041015625 c 1
 500.709960938 18.041015625 498.635507813 -8.371171875 499.276679688 -5.6867578125 c 1
 469.257617188 -1.92703125 438.661835938 0.1684375 406.980507813 0.1684375 c 1
 373.507304687 0.1684375 338.9121875 -0.8090625 302.666679687 -4.9996875 c 1
 302.666679687 -4.9996875 299.440429688 20.87890625 299.704101562 19.63671875 c 1
 326.383789062 24.9482421875 332.77734375 32.1806640625 338.263671875 79.7138671875 c 0
 342.25010857 114.252104942 342.84765625 139.961914062 342.587890625 175.420898438 c 1
 329.608398438 175.458007812 230.50390625 176.056640625 204.09765625 176.452148438 c 1
 202.66015625 145.424804688 206.484707797 91.403742809 209.017265625 67.176640625 c 0
 213.8675 35.056796875 223.078476563 26.7838671875 252.621210937 16.9980859375 c 1
 252.621210937 16.9980859375 251.79890625 -2.715625 251.36625 -7.0740234375 c 1
 211.004648437 -2.122109375 175.183085937 0.4538671875 139.851054687 0.4538671875 c 1
 107.76640625 0.4538671875 76.127265625 -1.3507421875 43.02921875 -5.945078125 c 1
 43.02921875 -5.945078125 40.8022265625 16.6702734375 40.7429296875 17.9925390625 c 1
 54.677890625 20.310078125 79.350199802 33.1681505599 82.8357421875 64.8505078125 c 0
 90.3940234375 124.27046875 90.1246875 204.209804688 90.1246875 265.691523437 c 3
 90.1246875 285.203085937 84.8330078125 325.899414062 81.6142578125 334.020507812 c 0
 72.4970703125 357.018554688 68.9609375 361.466796875 42.4892578125 371.126953125 c 1
 42.921875 396.10546875 l 1
EndSplineSet
EndChar
StartChar: l.pcap
Encoding: 57358 57358 498
Width: 421
Flags: HW
AnchorPoint: "Bottom" 202 -15 basechar 0
AnchorPoint: "Top" 169 485.3 basechar 0
LayerCount: 2
Back
SplineSet
230.9196875 398.197109375 m 1
 232.915390625 374.019960938 l 1
 206.606328125 367.126015625 202.799459385 364.347474186 191.172421875 304.790195313 c 0
 175.9021875 240.244726563 183.221394584 124.181412565 195.553242188 103.989023438 c 0
 202.676289062 56.385625 235.291992188 55.400390625 236.633789062 54.1982421875 c 1
 238.625976562 53.0087890625 259.529296875 54.8935546875 277.435546875 58.9248046875 c 0
 337.010742188 73.875 355.266601562 94.43359375 389.127929688 128.5625 c 1
 407.201171875 125.1640625 l 1
 400.880859375 99.498046875 396.526367188 34.4580078125 383.938476562 -10.296875 c 1
 364.143554688 -8.34375 351.649414062 -0.4658203125 325.697265625 0.6640625 c 0
 313.087890625 0.689453125 250.960273438 0.8691796875 197.309257812 0.8691796875 c 1
 106.056484375 0.8691796875 43.506953125 -4.2249609375 39.72046875 -4.2249609375 c 1
 36.6749609375 22.3339453125 l 1
 55.268125 27.670546875 70.0516662415 33.1701690159 76.234296875 79.829453125 c 0
 79.3188671875 94.4301171875 88.167578125 166.667226563 87.705078125 230.514179687 c 1
 86.78296875 282.801835937 71.8719791121 335.656852862 70.9114453125 327.767929687 c 0
 64.7961328125 370.2315625 43.8003125 368.821914063 32.554140625 371.845429687 c 1
 34.5537109375 393.961757813 l 1
 61.2948046875 392.064179687 89.136640625 390.9109375 115.641679687 390.9109375 c 3
 159.529804687 390.9109375 195.62265625 393.366953125 230.9196875 398.197109375 c 1
EndSplineSet
Fore
SplineSet
230.919921875 400.197265625 m 1
 232.915039062 376.01953125 l 1
 206.606445312 369.125976562 195.470703125 367.135742188 191.172851562 306.790039062 c 0
 186.521484375 241.494140625 193.021560967 127.513428514 195.553242188 103.989023438 c 0
 200.676289062 56.385625 221.291992188 49.400390625 232.633789062 50.1982421875 c 1
 234.625976562 49.0087890625 255.861515965 51.6296934318 273.435546875 56.9248046875 c 0
 333.010742188 74.875 355.266601562 94.43359375 389.127929688 128.5625 c 1
 407.201171875 125.1640625 l 1
 400.880859375 99.498046875 396.526367188 34.4580078125 383.938476562 -10.296875 c 1
 364.143554688 -8.34375 351.649414062 -0.4658203125 325.697265625 0.6640625 c 0
 313.087890625 0.689453125 250.960273438 0.8691796875 197.309257812 0.8691796875 c 1
 106.056484375 0.8691796875 43.506953125 -4.2249609375 39.72046875 -4.2249609375 c 1
 36.6748046875 20.333984375 l 1
 55.2685546875 25.6708984375 70.0516662415 33.1701690159 76.234296875 79.829453125 c 0
 79.3188671875 94.4301171875 78.16796875 166.666992188 77.705078125 230.514648438 c 1
 76.783203125 282.801757812 72.6640625 322.016601562 70.9111328125 329.767578125 c 0
 63.7958984375 361.231445312 56 369 32.5537109375 373.845703125 c 1
 34.5537109375 395.961914062 l 1
 61.294921875 394.064453125 89.13671875 392.911132812 115.641601562 392.911132812 c 3
 159.530273438 392.911132812 195.623046875 395.3671875 230.919921875 400.197265625 c 1
EndSplineSet
EndChar
StartChar: n.pcap
Encoding: 57360 57360 537
Width: 554
Flags: HW
AnchorPoint: "Bottom" 264 -15 basechar 0
AnchorPoint: "Top" 285 485.3 basechar 0
LayerCount: 2
Back
SplineSet
46.8459765625 391.13484375 m 1
 87.252265625 388.505078125 165.687413453 386.521183373 202.712109375 388.278203125 c 0
 209.49875 388.810742187 210.750104671 386.492024198 213.42515625 383.211328125 c 0
 276.397460937 306.951835938 227.464921875 346.445664063 413.138945312 194.648828125 c 1
 418.63078125 188.278515625 423.397070313 207.80953125 423.397070313 229.148789063 c 3
 423.397070313 262.402539063 422.57882132 321.791860545 421.154765625 356.8978125 c 0
 417.27625 362.935585938 395.931132813 360.713515625 383.906210938 368.812226563 c 1
 386.495273438 391.133359375 l 1
 415.113359375 386.363398438 442.381328125 384.808320312 471.110820312 384.808320312 c 3
 486.410664062 384.808320312 501.358320313 385.390351563 516.654140625 386.354804687 c 1
 518.83046875 359.673203125 l 1
 517.650976562 355.200625 490.756246688 361.096431262 482.674023437 302.538203125 c 0
 470.097539062 231.430585937 467.7140625 162.733945312 467.7140625 75.3629296875 c 1
 467.7140625 32.4104296875 470.39625 -1.6115234375 471.245351562 -12.974921875 c 1
 443.61921875 -17.451171875 l 1
 441.855976563 -11.670234375 423.971394106 -7.42506233868 410.928632813 8.11671875 c 0
 338.58515625 93.4524609368 276.652578125 165.082421875 169.867304688 261.722382813 c 1
 167.245234375 240.694296875 162.423423922 195.684878243 162.151132812 60.1651953125 c 1
 163.12109375 26.063828125 196.940546875 18.6861328125 229.52609375 16.8825390625 c 1
 228.335078125 -6.2033984375 l 1
 203.016445313 -1.81953125 170.975585938 -0.251640625 148.793085938 -0.251640625 c 3
 115.524101562 -0.251640625 85.8801171875 -3.1595703125 59.6326953125 -5.7707421875 c 1
 56.32984375 18.7992578125 l 1
 75.5793359375 24.6903125 97.506598012 65.5958382079 99.398984375 94.3901953125 c 0
 101.862304688 132.300664063 106.820507813 248.50453125 106.820507813 258.82640625 c 3
 106.820507813 269.2659375 101.721458492 318.572995415 87.7647265632 339.402226562 c 0
 67.0053515632 344.806367187 45.66453125 366.3415625 45.976796875 367.228789062 c 1
 46.8459765625 391.13484375 l 1
EndSplineSet
Fore
SplineSet
46.845703125 397.134765625 m 1
 87.251953125 394.504882812 177.6875 392.521484375 214.711914062 394.278320312 c 0
 221.499023438 394.810546875 222.860351562 392.579101562 225.424804688 389.2109375 c 0
 269 332 309 283 413.138671875 200.6484375 c 1
 418.630859375 194.278320312 423.397460938 208.809570312 423.397460938 230.1484375 c 3
 423.397460938 319.000888979 422 337 411 352 c 0
 406.756116224 357.78711424 403.930664062 368.713867188 372.90625 376.8125 c 1
 375.495117188 399.133789062 l 1
 404.11328125 394.36328125 431.380859375 393.80859375 460.110351562 393.80859375 c 3
 475.411132812 393.80859375 501.358398438 394.390625 516.654296875 395.354492188 c 1
 518.830078125 372.672851562 l 1
 507.651367188 370.200195312 490.755859375 370.096679688 482.673828125 311.538085938 c 0
 470.09765625 240.430664062 467.713867188 167.734375 467.713867188 80.36328125 c 1
 467.713867188 37.41015625 470.396484375 -1.611328125 471.245117188 -12.974609375 c 1
 443.619140625 -17.451171875 l 1
 435.856445312 -11.669921875 420.362304688 5.912109375 406.928710938 21.1171875 c 0
 323.584960938 115.452148438 261.65234375 154.08203125 167.8671875 254.72265625 c 1
 165.245117188 233.694335938 162.423423922 195.684878243 162.151132812 60.1651953125 c 1
 163.12109375 26.063828125 196.940546875 18.6861328125 229.52609375 16.8825390625 c 1
 228.335078125 -6.2033984375 l 1
 203.016445313 -1.81953125 170.975585938 -0.251640625 148.793085938 -0.251640625 c 3
 115.524101562 -0.251640625 76.8798828125 -3.1591796875 50.6328125 -5.7705078125 c 1
 47.330078125 18.798828125 l 1
 86 27 97 41 99.398984375 94.3901953125 c 0
 101.104288989 132.342316782 106.820507813 248.50453125 106.820507813 258.82640625 c 3
 106.820507813 291.2659375 100.383893147 318.419364134 87.7646484375 334.40234375 c 0
 73.0625 353.0234375 45.6640625 376.341796875 45.9765625 377.228515625 c 1
 46.845703125 397.134765625 l 1
EndSplineSet
EndChar
StartChar: uogonek.pcap
Encoding: 57459 57459 2280
Width: 504
UnlinkRmOvrlpSave: 1
Flags: HW
LayerCount: 2
Fore
SplineSet
351.630859375 15.54296875 m 1
 287.447679199 -46.1188656603 277.771484375 -75.4471425755 277.771484375 -132 c 3
 277.771484375 -178.376408535 299.134509604 -205.872070312 326.166015625 -205.872070312 c 3
 341.840568725 -205.872070312 360.660571522 -195.18359375 379.97265625 -171.599609375 c 1
 379.97265625 -171.599609375 391.081054688 -181.926757812 393.771484375 -190 c 1
 370.083847314 -242.788085938 330.174993147 -266 293.771484375 -266 c 3
 248.572780919 -266 208.561523438 -226.657902331 208.561523438 -160.834960938 c 3
 208.561523438 -119.928898898 239.248200448 -40.7982776007 327 23 c 1
 351.630859375 15.54296875 l 1
EndSplineSet
Refer: 812 57367 N 1 0 0 1 0 0 2
EndChar
StartChar: uni01EB.pcap
Encoding: 57492 57492 946
Width: 505
UnlinkRmOvrlpSave: 1
Flags: HW
AnchorPoint: "Top" 285 465 basechar 0
LayerCount: 2
Fore
SplineSet
340.630859375 12.54296875 m 1
 276.447679199 -47.8650918966 266.771484375 -76.5970352048 266.771484375 -132 c 3
 266.771484375 -178.376408535 288.134509604 -205.872070312 315.166015625 -205.872070312 c 3
 330.840568725 -205.872070312 349.660571522 -195.18359375 368.97265625 -171.599609375 c 1
 368.97265625 -171.599609375 380.081054688 -181.926757812 382.771484375 -190 c 1
 359.083847314 -242.788085938 319.174993147 -266 282.771484375 -266 c 3
 237.572780919 -266 197.561523438 -226.657902331 197.561523438 -160.834960938 c 3
 197.561523438 -117.534253545 232.894177668 -33.7713170097 333.931640625 33.76171875 c 1
 340.630859375 12.54296875 l 1
EndSplineSet
Refer: 567 57361 N 1 0 0 1 0 0 2
EndChar
StartChar: uni0195.pcap
Encoding: 57498 57498 863
Width: 847
Flags: HW
LayerCount: 2
Fore
SplineSet
478 147 m 0
 478 71.6250537394 510.93218521 32 592 32 c 0
 667.513306734 32 708.103837686 54.232510243 712 148 c 0
 714.242075426 201.959195638 712 291.91556948 711 348 c 0
 709 383 692 381 652 382 c 1
 653 407 l 1
 686 403 785 401 808 407 c 1
 810 381 l 1
 777 381 762 383 759 351 c 0
 756 347.829349347 751 281.238747668 750 147 c 0
 750 40.733348295 675.425048804 -6 567 -6 c 0
 468.04476062 -6 408.764071853 42.0910178428 411 136 c 0
 411.2890625 148.14007767 410 134.8046875 411 189 c 1
 181 189 l 1
 180 142.701955976 180 95.4178261861 183 57 c 0
 184 25 213 26 231 20 c 1
 231 20 228 3 228 -4 c 1
 199.128420419 1.2493781056 168.052363199 4.0187188666 138.388121044 4.0187188666 c 0
 111.542350854 4.0187188666 85.8528607142 1.7506218944 64 -3 c 1
 64 -3 61 15 60 24 c 1
 79 29 102 29 105 58 c 0
 111.02325267 117.226442081 114.144139522 206.666661814 114.144139522 272.383061663 c 0
 114.144139522 315.77116638 112.783723131 348.817892197 110 356 c 0
 105 380 85 381 63 384 c 1
 65 409 l 1
 100.970073031 405.899131635 132.709376831 402.798263271 166.658176466 402.798263271 c 0
 187.450171411 402.798263271 209.070941396 403.961389384 233 407 c 1
 235 383 l 1
 222 380 193 379 190 366 c 1
 185 345.588867188 185 275.170898438 183 217 c 1
 411 218 l 1
 411 252.8359375 411 292.794921875 409 343 c 0
 407 378 384 376 361 385 c 1
 364 408 l 1
 386.901994577 403.419601085 410.013789697 400.937207592 433.527579394 400.937207592 c 0
 461.349470565 400.937207592 489.734154144 404.412558482 519 412 c 1
 523 388 l 1
 497 381 489 378 486 352 c 0
 476 262.22265625 478 158.517578125 478 147 c 0
EndSplineSet
EndChar
StartChar: uni0223.pcap
Encoding: 57520 57520 1037
Width: 494
Flags: HW
LayerCount: 2
Fore
SplineSet
201.922851562 388.557617188 m 1
 189.237636201 388.557617188 175.053710938 367.12890625 175.053710938 349.380859375 c 3
 175.053710938 305.411655577 218.455057766 284.135017425 263.932617188 279.055664062 c 0
 360.270507812 268.295759728 442 207.26970959 442 142.063476562 c 3
 442 52.4619140625 358.091796875 -7 246.676757812 -7 c 3
 147.864257812 -7 56 39.9541015625 56 128.516601562 c 3
 56 202.696029683 141.149362004 258.326929369 216.999998039 273.571245354 c 0
 225.821112935 275.344096181 234.516465102 276.570729493 242.9375 277.216796875 c 0
 289.659781917 280.801361327 318.522460938 315.854144074 318.522460938 348.52734375 c 3
 318.522460938 374.986328125 305.46143802 422.008789062 274.171875 427.73828125 c 1
 279.828125 450 l 1
 332.31711368 448.134765625 391.098632812 422.918945312 391.098632812 360.733398438 c 3
 391.098632812 317.106076574 346.018285115 277.564687858 284.000002802 263.338137455 c 0
 274.85999632 261.241485338 265.352103219 259.694663558 255.56640625 258.765625 c 0
 195.93973911 253.104763742 135.202148438 204.245705616 135.202148438 150.86328125 c 3
 135.202148438 88.6657193352 185.790043558 25.1767578125 259.826171875 25.1767578125 c 3
 350.25823312 25.1767578125 360.676757812 95.7671928318 360.676757812 126.065429688 c 3
 360.676757812 186.537151606 316.049813687 247.631000744 241.27734375 254.791992188 c 0
 162.632066816 262.323884014 98.458984375 294.242952307 98.458984375 333.506835938 c 3
 98.458984375 375.732421875 155.176699471 410.374023438 198.346679688 410.374023438 c 1
 201.922851562 388.557617188 l 1
EndSplineSet
EndChar
StartChar: lambda.pcap
Encoding: 57531 57531 504
Width: 472
Flags: HW
LayerCount: 2
Fore
SplineSet
222 281 m 1
 189.502929688 198.138671875 135.883789062 81.7734375 126 51 c 0
 121.530273438 37.142578125 143 17 181 22 c 1
 180 -7 l 1
 161.333333333 -2.91666666667 125.652777778 -0.875 92.8078703704 -0.875 c 0
 69.3472222222 -0.875 47.3333333333 -1.91666666667 34 -4 c 1
 34 -2 31 13 30 22 c 1
 60 27 79.70703125 42.126953125 82 47 c 0
 138 166 186.415039062 275.237304688 226 372 c 0
 235 394 231 390 234 415 c 1
 265 415 l 1
 269 395 265.59765625 395.208007812 273 373 c 0
 316 244 345 161 407 37 c 0
 412.603515625 25.79296875 432 21 442 21 c 1
 442 19 442 5 441 -3 c 1
 423.976824749 -0.381049961378 400.475800154 1.09475019311 376.567793651 1.09475019311 c 0
 345.702689974 1.09475019311 314.159283114 -1.36491673104 295 -7 c 1
 295 -7 291 11 289 18 c 1
 304.40625 23 320.377929688 36.837890625 318 44 c 0
 289.000976562 131.708007812 256.813476562 208.897460938 222 281 c 1
EndSplineSet
EndChar
StartChar: sigma.pcap
Encoding: 57534 57534 739
Width: 468
Flags: HW
LayerCount: 2
Fore
SplineSet
68.953125 -5.4892578125 m 1
 63 16.05859375 l 1
 85.4136403116 28.15234375 103.75701195 49.5058947592 118.74609375 66.734375 c 0
 156.3046875 109.904296875 194.21484375 153.653320312 231.857421875 197.625 c 1
 194.8984375 243.841593889 153.657487653 299.406337208 115.751953125 342.708007812 c 0
 99.4812895936 361.294921875 82.427528623 379.5625 64.9296875 383.420898438 c 1
 67.90625 404.272460938 l 1
 111.492579752 402.173809562 163.220644241 401.375335797 212.124051748 401.375335797 c 0
 297.413684376 401.375335797 374.111600045 403.804041523 384.04296875 406 c 1
 390.714427895 397.2080716 393.220603968 392.904411471 393.220603968 386.992454559 c 0
 393.220603968 376.315884718 385.047019601 360.394053147 378.471679688 303.319335938 c 1
 357.612304688 300.591796875 l 1
 354.549845537 316.492667104 359.400969724 349.688844596 332 363 c 0
 312.004549444 372.71361789 285.297154946 375.725286498 257.556230254 375.725286498 c 0
 231.815923892 375.725286498 205.185784085 373.132344879 182.202148438 370.89453125 c 1
 219.393554688 325.806640625 256.264310261 280.641061523 293.58984375 235.630859375 c 0
 300.828125 226.90234375 310.985351562 216.051757812 320.736328125 211.4453125 c 1
 320.736328125 195.321289062 l 1
 310.895507812 190.807617188 302.766859679 183.28567976 297.495117188 176.89453125 c 0
 255.473742518 125.950304256 214.517412995 80.3966004207 173 32 c 1
 193.576310064 32 214.364359896 30 235 30 c 0
 259.565297415 30 292.148970877 31.676438115 335.037109375 52.3349609375 c 0
 360.3122649 64.5095946602 374.197569628 84.6193072606 396.331054688 119.861328125 c 1
 416 114.830078125 l 1
 405.654083613 68.6701457428 398.541133511 39.2963980778 390.782226562 -4.064453125 c 1
 318.134627953 -2.17858914227 251.985030644 -0.434544100505 195.072936201 -0.434544100505 c 0
 145.383658142 -0.434544100505 102.735971515 -1.76399999379 68.953125 -5.4892578125 c 1
EndSplineSet
EndChar
StartChar: psi.pcap
Encoding: 57537 57537 673
Width: 518
Flags: HW
LayerCount: 2
Fore
SplineSet
190.454101562 409 m 1
 214.740110334 402.856445312 238.272537859 400.120117188 262.208007812 400.120117188 c 0
 285.895891351 400.120117188 309.964480173 402.607421875 335.454101562 407 c 1
 336.36328125 379 l 1
 316.854453125 378 302.653310169 384.24065173 299.36328125 349 c 0
 295.606827471 308.763308278 292.118359259 259.648410435 291.812716103 193.522816886 c 1
 377.119930411 232.39958595 342.54485664 411.395507813 435.0859375 411.395507812 c 0
 466.574817003 411.395507812 479.340723522 393.46089814 487 373.28515625 c 1
 389.854701491 319.558416959 407.72427367 192.000041 291.788026507 168.674198519 c 1
 291.806746512 137.780839017 292.150328611 103.372664324 296 65 c 0
 298.909375 36 328 21 360 20 c 1
 359.090820312 -6 l 1
 331.588728636 -2.6171875 296.774819513 -0.869140625 262.57421875 -0.869140625 c 0
 226.034569077 -0.869140625 190.193395166 -2.8662109375 164.727539062 -7 c 1
 162 19 l 1
 194.880191473 20 225.372333411 31.9534315877 228.727539062 69 c 0
 231.30328811 97.4401831617 232.852276838 132.594660137 233.415681803 169.021720266 c 1
 118.604136416 193.753844707 136.074970956 319.825405254 39 372.694335938 c 1
 46.9543516897 392.868227181 60.2120673987 410.8046875 92.9140625 410.8046875 c 0
 184.877923738 410.8046875 151.202816803 235.553078543 233.650022411 194.804539113 c 1
 233.810114979 251.810214073 235.914739815 312.476209872 229.909179688 348 c 0
 224.668399825 379 206.979800141 377 188.63671875 381 c 1
 190.454101562 409 l 1
EndSplineSet
EndChar
StartChar: omega.pcap
Encoding: 57538 57538 605
Width: 520
Flags: HW
LayerCount: 2
Fore
SplineSet
220.741210938 1.2939453125 m 1
 149.014309507 1.15234375 81.2469157655 -0.8427734375 72.1943359375 -5 c 1
 74.181640625 36.7289846826 72.759765625 79.2940536296 66.4951171875 112.55078125 c 1
 100.958984375 115.4765625 l 1
 101.958984375 93.9778463695 104.974609375 77.2918785548 132.055664062 72.837890625 c 1
 143.592735268 71.169921875 157.379914021 70.0244140625 171.926757812 69.3896484375 c 1
 166.297909329 133.183351672 58 148.500001181 58 247.219726562 c 3
 58 336.259765625 151.786650844 414 264.330078125 414 c 3
 374.843949839 414 464 338.97265625 464 247.219726562 c 3
 464 149.189012428 357.101853577 128.061414057 351.580078125 69.3603515625 c 1
 368.255491884 70.1376953125 383.130676002 73.3396914896 393.931640625 74.0087890625 c 0
 417.747070312 75.484106014 415.763671875 95.408889501 419.071289062 114.96484375 c 1
 455.520507812 112.625 l 1
 445.974609375 66.4423828125 443.922851562 33.9375 446.794921875 -5 c 1
 436.80304971 -1.3115234375 368.494476433 0.8662109375 296.637695312 1.2353515625 c 1
 307.717461005 143.063476562 384.176757812 106.388671875 384.176757812 235.515625 c 3
 384.176757812 311.649717392 318.094680382 379.325195312 237.850585938 379.325195312 c 3
 183.486054054 379.325195312 139.529296875 333.987807063 139.529296875 271.212890625 c 3
 139.529296875 145.263671875 210.330096975 156.658203125 220.741210938 1.2939453125 c 1
EndSplineSet
EndChar
StartChar: j.smcp
Encoding: 57680 57680 481
Width: 318
Flags: HW
AnchorPoint: "Top" 167 539 basechar 0
AnchorPoint: "Bottom" 173 -94 basechar 0
LayerCount: 2
Fore
SplineSet
120.1 422.2 m 0
 113.1 462.4 80.3 459.4 43.4 463 c 1
 46.7 493.2 l 1
 84.5106897977 486.92772351 118.101018067 484.331215726 151.84973496 484.331215726 c 1
 191.145017656 484.331215726 230.659688357 487.871313804 276.8 493.2 c 1
 278.1 460.7 l 1
 239 459.4 212.9 466.6 208.2 424.2 c 0
 200 342.013476562 202.6 261.420605468 202.6 158.5 c 1
 202.6 67.7 208.6 31.8 209.3 1.4 c 1
 209.3 -64 164.4 -106.9 115 -140.5 c 0
 91.4 -156.1 67.1 -169.9 43.5 -181 c 1
 38.6 -181 19.2 -152.9 19.2 -152.9 c 1
 33.7747244508 -143.56985936 54.0184162945 -133.810408258 68.7999997144 -124.402687255 c 0
 73.0640879004 -121.760571361 76.9783352435 -119.514443171 80 -117.1 c 1
 137.1 -74.2 131.7 0.1 131 46.1 c 1
 131 75.1161132812 126.4 389.033496093 120.1 422.2 c 0
EndSplineSet
EndChar
StartChar: o.smcp
Encoding: 57685 57685 568
Width: 651
Flags: HW
AnchorPoint: "Top" 329 539 basechar 0
AnchorPoint: "Bottom" 331 -15 basechar 0
LayerCount: 2
Fore
SplineSet
297.9 461.7 m 3
 205.2 461.7 134.6 390.254980469 134.6 285.3 c 3
 134.6 157.18046875 232.1 35.3 349.6 35.3 c 3
 450.1 35.3 509.9 116.794824219 509.9 218.7 c 3
 509.9 354.346972656 409.1 461.7 297.9 461.7 c 3
332.8 500.9 m 3
 481.7 500.9 599 382.609765625 599 242.9 c 3
 599 105.828222656 487.9 -5.6 329.9 -5.6 c 3
 165.6 -5.6 52.1 120.932324219 52.1 242.9 c 3
 52.1 380.8390625 180.9 500.9 332.8 500.9 c 3
EndSplineSet
EndChar
StartChar: q.smcp
Encoding: 57687 57687 677
Width: 610
Flags: HW
AnchorPoint: "Top" 304 539 basechar 0
AnchorPoint: "Bottom" 289 -15 basechar 0
LayerCount: 2
Fore
SplineSet
291.2 473.1 m 3
 200.1 473.1 136.8 404.778222656 136.8 287.1 c 3
 136.8 160.508789062 205.6 34.1 316.5 34.1 c 3
 408.6 34.1 468.2 111.950976563 468.2 235.1 c 3
 468.2 381.483007812 387.1 473.1 291.2 473.1 c 3
390.9 16.1 m 1
 503.4 -59.4 579.1 -108.4 679 -108.4 c 3
 724.2 -108.4 777.2 -99.4 796.4 -89.5 c 1
 803.5 -113.2 l 1
 772.8 -127.5 684.6 -152.8 620.2 -152.8 c 3
 500 -152.8 413.2 -85.3 290.1 -5.7 c 1
 155.3 -1.5 52.1 116.424316406 52.1 255.9 c 3
 52.1 417.402636719 172.8 500.2 306.4 500.2 c 3
 438.2 500.2 556.2 401.224511719 556.2 257.2 c 3
 556.2 144.170410156 483.4 55.30625 390.9 16.1 c 1
EndSplineSet
EndChar
StartChar: r.smcp
Encoding: 57688 57688 695
Width: 572
Flags: HW
AnchorPoint: "Top" 253 539 basechar 0
AnchorPoint: "Bottom" 269 -15 basechar 0
LayerCount: 2
Fore
SplineSet
178 261.8 m 1
 205 260.8 219 259.2 246 259.2 c 1
 326.9 259.2 354.5 308.081933594 354.5 354.3 c 1
 354.5 399.716015625 312.4 467.6 234.2 468.3 c 1
 215.8 466.9 187.8 463.4 182.4 428.1 c 0
 175.4 379.526757812 176.7 313.9265625 178 261.8 c 1
45.6 488.6 m 1
 77.4 487.6 97.5 487.3 131.4 487.3 c 1
 182.2 487.3 204.2 497.7 262.2 497.7 c 1
 355.3 497.7 433.1 439.066113281 433.1 366 c 1
 433.1 304.75859375 385.5 263.391894531 330.7 242.2 c 1
 420.3 97.3 473 4.6 572 4.7 c 1
 566.4 -23.2 l 1
 429.7 -31.7 320.1 84.4 251.7 226.4 c 1
 247.6 226.1 243.8 226.1 241 226.1 c 1
 215.4 226.1 203.6 228.7 178 229.7 c 1
 180.9 164.5 182.9 117.2 187.9 62.8 c 0
 189.9 33.5 205.8 30.6 243.3 25.6 c 1
 237.4 -7.9 l 1
 204.491863046 -1.3109105685 170.738235368 2.28591330277 137.021676801 2.28591330277 c 1
 108.865209903 2.28591330277 80.7305382733 -0.227764658913 53.1 -5.6 c 1
 48.2 25.6 l 1
 85.8 27.6 98 31.7 101.3 58.5 c 1
 105.290665348 147.135281972 107.192349457 204.181802763 107.192349457 261.587474581 c 3
 107.192349457 307.753713961 105.962426896 354.152235847 103.6 417.4 c 1
 98.6 450.9 89.7 459.4 45.6 460.7 c 1
 45.6 488.6 l 1
EndSplineSet
EndChar
StartChar: t.smcp
Encoding: 57690 57690 761
Width: 552
Flags: HW
AnchorPoint: "Top" 285 539 basechar 0
AnchorPoint: "Bottom" 286 -15 basechar 0
LayerCount: 2
Fore
SplineSet
116.6 487.6 m 0
 199.349961856 485.819658178 282.683716369 484.623109014 366.141852247 484.623109014 c 1
 406.866131053 484.623109014 447.614119808 484.928315904 488.3 485.6 c 0
 500.1 485.6 509.5 490.9 514.4 497.1 c 1
 533.8 484.6 l 1
 523.3 455.6 511.2 427.5 509.2 387.5 c 1
 480.6 392.1 l 1
 480.6 392.1 483.8 410.9 484.5 413 c 1
 494.1 454.3 362.5 447.5 325.8 446.1 c 1
 321.832840641 363.067878284 319.762449316 285.132095386 319.762449316 204.079367073 c 1
 319.762449316 163.837925798 320.326438288 122.729745471 321.5 79.5 c 0
 323.9 29.8 324.1 33.7 396.8 25.8 c 1
 391.9 -7 l 1
 364.977170699 -2.08869211291 330.866743142 0.155761718384 295.880105313 0.155761718384 c 1
 246.452553396 0.155761718384 195.147719745 -4.52068671412 159.6 -12.4 c 1
 153.7 24.4 l 1
 232.2 34.5303710937 232.6 42.3 234.3 60.9 c 0
 238.220747713 109.273642528 242.588712891 217.87864739 242.588712891 308.572022665 c 1
 242.588712891 372.56294455 240.396033114 427.652495014 234.3 446.4 c 1
 185.7 448.1 151 446.8 108.6 439 c 0
 76.3 432.9 76.1 436.9 46.1 383.9 c 1
 16.2 398 l 1
 32.7 431.4 54.7 489.4 63.6 507.9 c 1
 78.9 496.2 93.9 488.3 116.6 487.6 c 0
EndSplineSet
EndChar
StartChar: x.smcp
Encoding: 57694 57694 2310
Width: 584
Flags: HW
AnchorPoint: "Top" 289 539 basechar 0
AnchorPoint: "Bottom" 291 -15 basechar 0
LayerCount: 2
Fore
SplineSet
30.5 487.6 m 1
 65.7412763858 486.034609042 94.4849440091 484.866352691 121.552227187 484.866352691 c 1
 157.289214158 484.866352691 189.63938926 486.900651179 232.3 492.5 c 1
 233.3 466.2 l 1
 228.7 464.9 216.3 464.6 205.5 462.6 c 0
 191 459 192.667871094 444.408886719 199.3 433 c 1
 200.7 430.2 298.2 289 299.6 287.6 c 1
 333.95859375 336.257324219 359.5953125 380.100878906 374.4 403.5 c 0
 383.5 417.2 391.7 443.4 369.2 454 c 1
 364.6 456 334.6 465 330.7 465.6 c 1
 334.3 488.6 l 1
 360.998831248 486.362430399 390.523351592 485.119638962 420.465961485 485.119638962 c 1
 456.775044439 485.119638962 493.801396194 486.964879419 526.3 490.9 c 1
 528.3 464.3 l 1
 517.3 462.3 482.6 458.4 450.5 428.7 c 0
 435.771679688 415.7734375 427.959472656 407.235644531 317.3 270.5 c 1
 354.1 226.886230469 473.2 82.1950195311 487.6 68.3 c 1
 519 35 532.4 35.5 564.2 27.6 c 1
 560.7 -1.3 l 1
 539.602761862 2.94438360979 506.420570142 5.00083900807 471.499374383 5.00083900807 c 1
 426.022483167 5.00083900807 377.578926154 1.48228368703 348.5 -5.2 c 1
 344.1 20.1 l 1
 350.9 25.4 367.1 28 374.9 32 c 0
 396.9 43.3 385.7 66 374.2 82.8 c 0
 351.3 120.161425782 323.7 161.26328125 279.4 216.5 c 1
 234.2 157.60859375 205.5 110.442285156 182.1 71.9 c 0
 173.9 58.4 166.2 36 189.8 26.8 c 0
 200.3 22.7 215.2 20.4 221.7 19.4 c 1
 221.7 -4.6 l 1
 188.116580528 -2.21103491219 155.675435155 -0.442446336803 123.939179354 -0.442446336803 c 1
 94.5748121618 -0.442446336803 65.8142867453 -1.957874186 37.2 -5.9 c 1
 35.9 19.4 l 1
 46.6 20.7 83.2 32.4 114 62.2 c 0
 125.262011718 73.1584960938 130.5 74.6850585939 259.4 236.2 c 1
 118.6 408.8984375 112.53203125 415.49140625 102 425.3 c 0
 67.4 456.9 47.7 464.6 30.2 467.2 c 1
 30.5 487.6 l 1
EndSplineSet
EndChar
StartChar: ae.smcp
Encoding: 57703 57703 22
Width: 815
Flags: HW
AnchorPoint: "Bottom" 430 -15 basechar 0
AnchorPoint: "Top" 445 539 basechar 0
LayerCount: 2
Fore
SplineSet
377.792138672 456.14296875 m 1
 333.259416929 382.561741063 279.526864433 291.452482196 230.00625 211.65 c 1
 270.965158911 208.670467747 350.53515384 207.947577288 392.769335937 209.296923828 c 1
 393.490378955 300.625055535 392.330829034 401.856065313 389.8 441.85 c 1
 389.664547505 448.108488383 384.483637988 453.055548854 377.792138672 456.14296875 c 1
301.1 504.15 m 1
 350.673701562 501.022186284 420.261002505 499.847944212 488.440346142 499.847944212 c 0
 598.833813458 499.847944212 705.354404331 502.891417253 718.1 505.8 c 1
 726.686073561 498.370851215 729.780603557 492.887146769 729.780603557 485.000046021 c 0
 729.780603557 470.036750245 718.67423392 446.450395961 712.75 384.95 c 1
 689.25 382.6 l 1
 682.15 402.35 695.3 438.95 667.1 453.2 c 0
 630.138235294 469.9 550.280882353 472.95 493.35 464.9 c 0
 481.2 463.55 472.75 452.15 471.75 440.65 c 0
 467.1 381.126825675 462.75 323.967133706 461.75 269.25 c 1
 505.765254237 269.95 599.193644068 271.25 613.1 272.9 c 0
 645.55 277.9 650.55 295.45 663.3 329.7 c 1
 688.85 324.65 l 1
 683.010680545 303.155796443 680.64481452 279.300893073 680.64481452 255.238201825 c 0
 680.64481452 227.869207842 683.685599272 200.205796443 688.15 175.9 c 1
 660.6 168.85 l 1
 645.8 230.75 647.6 228.15 612.45 235.4 c 0
 581.45 241.7 525.5 240.7 461.75 241.05 c 1
 461.4 170.561513322 464.1 109.842071557 474.8 61.5 c 0
 477.5 50.35 483.9 42.2 495.7 40.55 c 0
 528.48365784 35.6462704343 555.485861533 31.3987698327 581.320766339 31.3987698327 c 0
 609.274768822 31.3987698327 635.897975975 36.524692172 667.25 51.5 c 0
 713.25 74.75 718.7 90.6 746 139.95 c 1
 768.15 134.25 l 1
 756.7 85.15 747 43.15 738.25 -2.6 c 1
 659.959118915 -1.34483933986 575.023759249 0.824420058004 497.922717424 0.824420058004 c 0
 437.521286121 0.824420058004 382.051843902 -0.938673326307 338.55 -7.05 c 1
 331.15 20.15 l 1
 368.55 28.2 385.3 35.35 388.55 61.4 c 1
 390.333324165 79.4787470207 391.949707254 121.466615533 392.720800781 172.780761719 c 1
 352.697301083 179.031017224 260.81208501 182.32294205 208.620947266 177.45 c 1
 181.225348982 133.0021875 160.254929026 107.473635285 137.99265 63.6 c 0
 126.85495 41.9 144.3958 21.2 194.27795 26.2 c 1
 190.45965 -8.05 l 1
 167.628753053 -3.09323991962 126.913790162 -0.465109605422 88.839067851 -0.465109605422 c 0
 62.3547436013 -0.465109605422 37.1556693463 -1.7297733991 20.241415 -4.35 c 1
 20.241415 -3.05 18.09912 15.45 17.377775 26.2 c 1
 55.606115 34.35 81.3029 47.25 88.6282 58.55 c 0
 186.812883709 208.584651976 275.389968781 348.972949748 348.91640625 472.173339844 c 1
 335.842768959 475.389307862 318.210483971 477.252775132 297.4 480.95 c 1
 301.1 504.15 l 1
EndSplineSet
EndChar
StartChar: thorn.smcp
Encoding: 57726 57726 781
Width: 484
Flags: HW
LayerCount: 2
Fore
SplineSet
177.257080078 149.721630859 m 1
 197.22602539 147.543735211 208.419726562 145.413232422 230.557373047 145.413232422 c 3
 313.36785678 145.413232422 360.926367187 190.977673304 360.926367187 257.375878906 c 3
 360.926367187 314.074951589 307.782945545 365.381762847 244.450040995 369.229098122 c 1
 226.815255875 370.941185461 198.479175305 370.475292969 176.446582031 368.328808594 c 1
 175.472335405 335.947314453 176.391898903 204.571773976 177.257080078 149.721630859 c 1
253.49453125 470.08671875 m 1
 232.940660395 468.904831689 213.122289419 468.833811308 196.700000429 463.034254555 c 0
 185.647962642 459.02546701 180.921781393 449.048462214 179.25 432.125146485 c 0
 178.502130072 421.48951179 177.88196645 410.068735461 177.375146484 397.63071289 c 1
 200.541196785 399.31403106 223.508634057 401.237109375 252.162451172 401.237109375 c 3
 367.89680938 401.237109375 441.210546875 332.479000621 441.210546875 264.587597656 c 3
 441.210546875 166.879702207 337.208500321 115.089648438 230.017675781 115.089648438 c 3
 207.451171875 115.089648438 199.425390625 116.453252869 178.40390625 117.009033203 c 1
 179.32564216 96.4126629949 180.814207721 76.5876527577 183.277246094 61.8197265625 c 0
 187.785791016 36.5213867188 197.028857422 32.1047363281 258.011083985 27.8196777344 c 1
 254.95625 -7.98178710937 l 1
 219.485165694 -0.674433256661 189.941985085 3.21027352264 158.903647196 3.21027352264 c 3
 126.568065061 3.21027352264 92.7270546294 -0.984978281406 49.6046875 -10.0391113281 c 1
 40.1296386719 18.062890625 l 1
 86.6474121094 34.5362304687 100.074427575 38.4395764518 101.233447265 66.5612792969 c 1
 102.896857412 94.9247306282 103.69390961 143.234566719 103.69390961 196.417978852 c 3
 103.69390961 282.421475331 101.415565002 380.641347267 97.2533691406 436.251855469 c 0
 95.8272257608 460.611349786 82.9370117188 465.814440512 32.15 471.777636719 c 1
 35.1282714844 501.645214844 l 1
 70.5245956687 496.462884349 107.068190469 494.048497163 143.897532658 494.048497163 c 3
 179.587889316 494.048497163 215.54057122 496.498625612 251.888085937 500.757128906 c 1
 253.49453125 470.08671875 l 1
EndSplineSet
EndChar
StartChar: eng.smcp
Encoding: 57763 57763 335
Width: 674
Flags: HW
LayerCount: 2
Fore
SplineSet
495.4 -151.95 m 0
 461.255825266 -175.349428687 433.305185185 -194.2 385.1 -194.2 c 3
 359.709345794 -194.2 320.036448598 -186.45 300.2 -170.95 c 1
 301.185714286 -146.20703125 300.2 -146.20703125 348.5 -112.3 c 1
 374.120833334 -123.892857143 391.808314016 -139.35 419.45 -139.35 c 3
 495.184037604 -139.35 520.74296875 -88.0420303313 520.74296875 -1.46645507812 c 3
 520.74296875 34.0395162441 498.702896244 70.1429761321 476.6 92.2317871094 c 0
 373.359380908 194.219143217 267.62947037 295.634490744 159.05 393.35 c 1
 159.05 397.25 152 121.5 152.65 125.4 c 1
 151.835401141 49.5475797064 178.85 33.8361788618 242.55 25.25 c 1
 236.5 -10.35 l 1
 208.027909593 -2.27286244289 179.68318207 0.3442803405 152.649206303 0.3442803405 c 0
 114.763680726 0.3442803405 79.4374521622 -5.33724288921 50 -8.05 c 1
 45.65 26.2 l 1
 89.35 26.85 104.043742402 36.6098706212 106.75 81.3 c 0
 113.15 187.12397541 120.357047085 292.532015778 112.15 409.15 c 0
 109.2 446.95 79.4 467 44.5 471.2 c 1
 45.85 505.45 l 1
 81.6 500.8 125.750957932 499.4 159 499.4 c 0
 170.1 499.4 171.922368719 496.216656819 176.8 491 c 0
 285.705721321 375.734655938 387.561963112 274.040246467 499.5 174.974679526 c 0
 512.737084808 163.104237284 526.229521321 149.682214959 537.15 137.1 c 1
 544.85 222.193632793 544.297304388 292.294627353 543.9 383.8 c 0
 543.55 479.8 507.15 478.55 463.75 482.3 c 1
 466.8 511.85 l 1
 507.659171994 506.162390441 543.852789004 504.323505714 577.774479799 504.323505714 c 0
 599.215564459 504.323505714 619.754032085 505.111760832 639.95 506.15 c 1
 643.3 476.25 l 1
 608.6 472.2 594.911566681 471.581647563 590.75 430.9 c 0
 579.411177639 317.293488086 575.45600586 186.67954833 575.45600586 62.6 c 1
 575.45600586 45.2630473071 576.7 29.1475588491 576.7 5.2 c 3
 576.7 -81.0727668872 545.472178289 -117.605560447 495.4 -151.95 c 0
EndSplineSet
EndChar
StartChar: gha.smcp
Encoding: 57792 57792 411
Width: 670
Flags: HW
LayerCount: 2
Fore
SplineSet
309.8 466.2 m 3
 213.325 466.2 131.526464843 394.492041589 131.526464843 271.678027343 c 3
 131.526464843 143.244925045 223.878320312 24.8 335.2 24.8 c 3
 359.778309644 24.8 378.976177879 29.7864257812 390.372949218 36.2577148438 c 1
 397.866939375 47.7419592838 402.5078125 184.634005822 402.5078125 253.987890625 c 3
 402.5078125 319.616885354 396.937988282 422.596524003 384.777246093 448.549511718 c 1
 363.327338351 459.030566406 339.89318541 466.2 309.8 466.2 c 3
325.005566407 503 m 3
 377.168623755 503 424.832288283 487.503758562 461.619628907 461.887207032 c 1
 459.192934128 392.313574215 453.817675781 322.739941404 453.817675781 253.166992188 c 3
 453.817675781 179.233105471 459.737981998 105.29853516 463.050195313 31.3646484375 c 1
 425.509127167 4.28814119438 376.382429002 -12.0127929688 320.836132813 -12.0127929688 c 3
 171.2375 -12.0127929688 50.3 92.9295898435 50.3 237.323925782 c 3
 50.3 394.562207032 184.966601562 503 325.005566407 503 c 3
435.5 463.9 m 1
 468.790127452 467.078710937 569.369704465 482.786523438 603.3 495.5 c 1
 620.3 476.5 l 1
 604.236614711 433.793247076 596.955273437 293.329882328 596.955273437 220.79453125 c 3
 596.955273437 134.268359375 596.923736765 27.7232949603 605.5 -64.9 c 0
 607.877088225 -89.5361569282 646.789587373 -90.8164173984 675 -92.5 c 1
 671.9 -125.2 l 1
 638.539054619 -120.462795011 594.865445275 -116.936377091 559.001862746 -116.936377091 c 1
 522.072828184 -116.936377091 481.489726736 -122.741883054 447.7 -127.6 c 1
 444.1 -95.3 l 1
 492.841567769 -92.505312021 524.985151359 -92.3664958245 527.4 -46.2 c 0
 530.193066406 24.9676757813 531.574511719 124.893164063 531.574511719 207.457226563 c 3
 531.574511719 259.729851973 530.64801398 343.674532486 526.1 413.9 c 0
 524.738291172 428.307538047 517.050717561 441.408203125 498.0875 441.408203125 c 3
 486.965869141 441.408203125 467.665495099 433.85685436 455.8 428 c 1
 435.5 463.9 l 1
EndSplineSet
EndChar
StartChar: uni0195.smcp
Encoding: 57822 57822 864
Width: 916
Flags: HW
LayerCount: 2
Fore
SplineSet
536.808203125 162.402832031 m 1
 536.808203125 83.7452577078 566.43646334 28.1 648.4 28.1 c 1
 732.510946398 28.1 770.47268638 63.160551407 773.2 149.2 c 1
 774.769452798 208.228588745 772.9 290.091644905 772.2 344.1 c 1
 770.8 381.558230162 748.461322933 379.313867707 709.6 381.1 c 1
 711.5 408.8 l 1
 735.872285095 405.463965443 771.448190063 402.8492527 808.117462934 402.8492527 c 1
 836.923481626 402.8492527 865.832198703 405.104051835 882.1 408.2 c 1
 884.4 380.1 l 1
 850.463799246 378.129781681 831.841274494 378.70678698 828 344.7 c 0
 823.8 328.482606399 820 273.74605327 819.3 158.1 c 1
 819.3 42.1978570808 723.771487653 -16.5 621.6 -16.5 c 1
 519.375245792 -16.5 464.334850297 44.6979665722 465.9 145 c 1
 466.10234375 153.498054369 465.5 155.923773951 466.5 230.1 c 1
 182.2 230.1 l 1
 181.2 171.098888715 180.649699956 106.997879123 183.9 59.4 c 0
 185.2 26.2 221.1 28.1 243.3 21.8 c 1
 243.3 21.8 240 3 239.7 -6.1 c 1
 204.007612452 0.154944980827 168.766131418 3.54679724664 135.155366416 3.54679724664 c 0
 105.313490725 3.54679724664 76.7563747346 0.88378124999 50.5 -4.8 c 1
 50.5 -4.8 46.9 15 45.6 26.7 c 1
 69.7 32 97.6010082901 32.0101985087 100.2 60.1 c 0
 106.592035428 135.524459054 110.295958228 248.146482965 110.295958228 331.112817812 c 0
 110.295958228 385.681513369 108.692653328 427.419804968 105.2 437.3 c 0
 99.6 460.7 76 461.4 49.2 465 c 1
 51.5 493.9 l 1
 91.6880056332 489.809642149 127.188509147 486.53150249 165.462832206 486.53150249 c 0
 190.449656339 486.53150249 216.650977119 487.918199837 246.2 491.3 c 1
 248.2 463.4 l 1
 231 460.1 195.245319488 459.378224968 192.4 445.8 c 1
 187.1 420.696972657 185.9 333.404296875 183.9 261.7 c 1
 466.5 262.4 l 1
 466.5 307.152636719 465.806491709 358.416252067 463.6 423.4 c 0
 461.9 459 434.1 457 405.7 466.9 c 1
 409.3 493.2 l 1
 437.647217518 488.153425621 463.803346364 485.24344048 490.298462559 485.24344048 c 0
 521.005730824 485.24344048 552.179096202 489.144697722 587.4 498.1 c 1
 592 470.2 l 1
 559.1 461.7 550.141842851 460.203951828 547.5 433.6 c 0
 538.339736862 337.250300852 536.808203125 209.72456416 536.808203125 162.402832031 c 1
EndSplineSet
EndChar
StartChar: theta.smcp
Encoding: 57854 57854 775
Width: 651
Flags: HW
LayerCount: 2
Fore
SplineSet
448.525 318.6 m 1
 447.188183594 283.98455486 447.497314453 224.774696666 451.775 187.859863282 c 1
 425.925 186.140136718 l 1
 418.875292969 222.619554456 413.79136079 222.835770289 395.375 225.659863282 c 0
 390.495642998 226.519921875 353.08890633 231.680273438 326.525 231.680273438 c 3
 295.810371668 231.680273438 252.805778295 227.413047801 247.225 225.659863282 c 0
 229.108789062 222.419863281 227.767529297 207.299863281 226.425 187.859863282 c 1
 199.325 188.719726562 l 1
 203.535058594 234.275329383 204.063183594 276.34082731 199.325 322.040136718 c 1
 225.775 323.759863282 l 1
 228.447363281 307.83839903 230.182849613 294.95773366 249.825 288.540136718 c 0
 254.827001213 285.100136719 267.610334547 279.940136718 326.525 279.940136718 c 3
 379.484142348 279.940136718 390.83597963 283.341692459 394.075 284.240136718 c 0
 414.875 287.394142082 420.075 285.29147184 422.675 319.459863282 c 1
 448.525 318.6 l 1
EndSplineSet
Refer: 568 57685 N 1 0 0 1 0 0 2
EndChar
StartChar: xi.smcp
Encoding: 57856 57856 2313
Width: 531
Flags: HW
LayerCount: 2
Fore
SplineSet
52.1806640625 353.741503906 m 1
 56.4252929688 410.576757813 57.3364257812 450.579882813 56.0600585938 498.5 c 1
 70.0236778753 492.627856918 173.635152085 489.400234046 274.273344355 489.400234046 c 3
 369.176822407 489.400234046 461.436219833 492.270491861 473.37890625 498.5 c 1
 471.132128906 445.845996094 472.739746094 392.137988281 479.819335938 350.175683594 c 1
 449.913964844 346.609863281 l 1
 449.913964844 383.7484375 451.775 419.030664063 420.75703125 420.268457031 c 0
 378.670478366 423.57975957 323.219466155 425.199720881 268.806497273 425.199720881 c 3
 206.04011881 425.199720881 144.654966432 423.044185876 106.757128906 418.842675781 c 0
 85.5091796875 416.39375 87.2798828125 383.334960938 84.3286132812 350.888574219 c 9
 52.1806640625 353.741503906 l 1
487.2 146.229492188 m 1
 476.412792969 85.7549804689 474.095214844 43.1892578125 477.339941406 -7.8 c 1
 463.175985274 -1.92785691845 358.079667787 1.29976595381 255.99928238 1.29976595381 c 3
 159.735792373 1.29976595381 66.1543109141 -1.57049186117 54.0404296875 -7.8 c 1
 56.2865234375 48.1451171875 54.6798828125 105.209082031 47.6 149.7953125 c 1
 77.5046875 153.360449219 l 1
 77.5046875 112.605957031 75.262109375 73.8896484375 112.64296875 72.5315429688 c 0
 154.729521634 69.2202404303 210.180533845 67.6002791186 264.593502727 67.6002791186 c 3
 327.35988119 67.6002791186 388.745033568 69.7558141241 426.642871094 73.9573242188 c 0
 453.557226562 76.664453125 451.313964844 113.211914062 455.052050781 149.081738281 c 9
 487.2 146.229492188 l 1
414.8640625 326.999902344 m 1
 413.326953125 286.218066406 413.682226562 216.461425781 418.602148437 172.970410156 c 9
 401.407226562 171.544628906 l 1
 393.298632812 214.499414062 387.21640625 213.78359375 366.268945313 218.079394531 c 0
 359.540527344 218.792285156 307.955078125 223.0703125 271.321289062 223.0703125 c 27
 230.20234375 223.0703125 172.635546875 219.505175781 165.159375 218.079394531 c 0
 144.322460938 214.213476563 142.779882813 196.169238281 141.236035156 172.970410156 c 9
 121.797851562 173.683984375 l 1
 126.640234375 227.046386719 127.24765625 276.32109375 121.797851562 329.852148437 c 9
 140.48828125 331.277929687 l 1
 143.561914062 312.844726562 145.098730469 297.204199219 168.149707031 290.501269531 c 0
 174.878808594 287.648339844 192.073730469 283.3703125 271.321289062 283.3703125 c 3
 344.588183594 283.3703125 360.28828125 286.221875 364.774121094 286.935449219 c 0
 388.697460938 290.587304688 394.678808594 288.152050781 397.669140625 327.712792969 c 9
 414.8640625 326.999902344 l 1
EndSplineSet
EndChar
StartChar: phi.smcp
Encoding: 57860 57860 662
Width: 576
Flags: HW
LayerCount: 2
Fore
SplineSet
269.99609375 382.28828125 m 3
 192.74161567 382.28828125 134.213085938 336.636159211 134.213085938 269.286816406 c 3
 134.213085938 180.926533235 206.692091686 107.349609375 306.534960937 107.349609375 c 3
 390.393000324 107.349609375 440.44765625 159.508936145 440.44765625 224.333007812 c 3
 440.44765625 320.943476133 364.983528666 382.28828125 269.99609375 382.28828125 c 3
294.886132813 415 m 3
 423.767773438 415 525.3 334.979199219 525.3 240.724902344 c 3
 525.3 149.210576156 428.984960937 74.6 292.0703125 74.6 c 3
 149.54609375 74.6 51.5 156.316548239 51.5 240.724902344 c 3
 51.5 336.579199219 163.2328125 415 294.886132813 415 c 3
EndSplineSet
Refer: 437 57679 N 0.932061 0 0 1 133.498 0 2
EndChar
StartChar: uni1E9E.smcp
Encoding: 57944 57944 1590
Width: 687
Flags: HW
LayerCount: 2
Fore
SplineSet
423.6 466.7858 m 1
 394.98432196 478.648570486 362.770646373 482.410253907 340.075585938 482.410253907 c 3
 220.597629026 482.410253907 160.511230468 406.926828042 160.511230468 295.763378907 c 0
 160.511230468 274.53437177 164.56481936 78.8255002296 164.702246093 74.1885742188 c 0
 166.818215617 24.1654001577 186.889706378 22.3464866418 235.558691407 16.8897460937 c 1
 232.4125 -10.0526367187 l 1
 171.195413678 -5.08564453125 70.6781689851 -5.08564453125 25.3322265625 -10.0526367187 c 1
 21.4 19.7276367187 l 1
 78.5593655042 28.138768722 86.92421875 28.8421263276 86.92421875 72.06015625 c 0
 86.92421875 81.5387125486 84.3919921875 278.07230364 84.3919921875 297.030078125 c 3
 84.3919921875 411.753306923 184.356761376 515 328.27890625 515 c 3
 412.350099218 515 483.12979375 487.122953907 530.390429688 461.822324218 c 1
 520.1671875 438.292167188 l 1
 437.172814843 462.62155 383.328710937 409.7314875 383.328710937 361.037597657 c 3
 383.328710937 306.771232767 429.343214611 300.627854071 512.6 269.7 c 0
 611.8388 235.5794 636.8 178.058745098 636.8 124.639648438 c 3
 636.8 68.7903344329 596.583209391 -8.7 456.190136718 -8.7 c 3
 420.573461885 -8.7 383.014378501 -3.75544298195 350.636035157 9.06591796875 c 0
 335.52626375 15.048974003 333.593847657 12.9415420603 327.829394532 -5.1431640625 c 1
 302.663964843 -1.6052734375 l 1
 303.275578193 48.8449046724 301.441175804 62.0057894083 285.544042968 140.239257812 c 1
 312.282226562 144.49609375 l 1
 323.452050125 104.287158587 331.559992338 92.16963319 347.758300782 76.3454101562 c 0
 374.801429098 49.9472620824 434.16405055 26.0086914063 476.377832032 26.0086914063 c 3
 540.487804973 26.0086914063 566.885742188 72.1421764998 566.885742188 107.677929687 c 3
 566.885742188 184.09244982 464.722462825 205.984599048 425 222.3 c 0
 405.511154589 229.572747686 312.360644532 256.990364059 312.360644532 346.800097657 c 3
 312.360644532 393.593876474 349.4227 447.799569095 423.6 466.7858 c 1
EndSplineSet
Substitution2: "salt-1" germandbls.smcp
EndChar
StartChar: Circumflex
Encoding: 58020 58020 2389
Width: 281
Flags: HMW
AnchorPoint: "Top" 140 699 mark 0
LayerCount: 2
Fore
SplineSet
292.504882812 784.361328125 m 1
 281.09765625 769.854492188 l 1
 140.5 829.263671875 l 1
 -0.0966796875 769.854492188 l 1
 -11.5048828125 784.361328125 l 1
 122.846679688 914.399414062 l 1
 158.153320312 914.399414062 l 1
 292.504882812 784.361328125 l 1
EndSplineSet
EndChar
StartChar: Breve
Encoding: 58023 58023 2379
Width: 321
Flags: HW
AnchorPoint: "Top" 162 699 mark 0
LayerCount: 2
Fore
SplineSet
14.7646484375 863.463867188 m 1
 34.185546875 874.797851562 l 1
 51.8994715029 853.141632417 106.15198873 842.28125 160.577148438 842.28125 c 3
 215.286543564 842.28125 270.169139668 853.098729324 288.813476562 874.797851562 c 1
 306.235351562 863.463867188 l 1
 283.107775803 802.786132812 221.413589343 772.447265625 159.9296875 772.447265625 c 3
 98.3944588922 772.447265625 37.0696904473 802.786132812 14.7646484375 863.463867188 c 1
EndSplineSet
EndChar
StartChar: Uni030B
Encoding: 58027 58027 2529
Width: 300
Flags: HW
AnchorPoint: "Top" 87 699 mark 0
LayerCount: 2
Fore
SplineSet
2.77734375 774.306640625 m 1
 32.1991364692 828.743179867 61.7239345604 880.929376049 94.4609375 922.802734375 c 1
 94.4609375 922.802734375 146.41015625 875.421316964 177.412109375 844.1796875 c 1
 113.045931747 821.058099598 78.4952489656 828.259388362 15 759.599609375 c 1
 2.77734375 774.306640625 l 1
165.052734375 772.3046875 m 1
 195.625376613 822.920752955 225.467225247 872.315766803 265.073242188 915.836914062 c 1
 265.073242188 915.836914062 310.46221578 872.386541421 339.689453125 839.53515625 c 1
 285.359394841 817.333338412 248.42375297 822.529726143 178.787109375 759.431640625 c 1
 165.052734375 772.3046875 l 1
EndSplineSet
EndChar
StartChar: cedillafloating
Encoding: 58084 58084 249
Width: 0
Flags: HW
AnchorPoint: "Bottom" -193 -15 mark 0
LayerCount: 2
Fore
SplineSet
-289.175 -200.003 m 1
 -285.141 -177.812 l 1
 -239 -188 -195 -161.724 -195 -125 c 3
 -195 -109.445 -206 -85 -236.636 -95.1289 c 1
 -241.123 -72.4629 l 1
 -199.113 -38.5203 -131.874 -44.0724 -131.874 -109.349 c 3
 -131.874 -179.786 -219.751 -230.116 -289.175 -200.003 c 1
EndSplineSet
EndChar
StartChar: one.smaller
Encoding: 58359 58359 617
Width: 261
Flags: HW
LayerCount: 2
Fore
SplineSet
51.5517578125 272.82421875 m 1
 63.3291015625 271.936523438 79.4375 271.434570312 97.1806640625 271.434570312 c 0
 136.25 271.434570312 183.240234375 273.868164062 209.346679688 279.969726562 c 1
 210.58984375 264.599609375 l 1
 161.059558455 255.99609375 159.875881151 253.70983783 156.943359375 226.462890625 c 0
 156.107307221 218.394062271 152.2890625 170.130702096 152.2890625 138.087890625 c 3
 152.2890625 97.4628044394 155.074912878 43.9007809604 156.743164062 36.05859375 c 0
 161.651962539 13.7919921875 183.707724482 15.2109375 213.797851562 13.755859375 c 1
 212.931640625 0 l 1
 186.880859375 2.072265625 157.235351562 3.2119140625 127.342773438 3.2119140625 c 0
 99.158203125 3.2119140625 70.75390625 2.19921875 44.93359375 0 c 1
 43.2021484375 14.0625 l 1
 70.255558615 16.849609375 98.5404279862 15.1875191352 104.427734375 39.47265625 c 0
 106.183561413 46.7154422617 108.887695312 63.0892361349 108.887695312 138.087890625 c 3
 108.887695312 206.86056681 106.143762713 221.252735309 104.99609375 228.481445312 c 0
 101.696130311 249.266601562 102.278825148 254.666015625 50.814453125 257.525390625 c 1
 51.5517578125 272.82421875 l 1
EndSplineSet
EndChar
StartChar: eight.smaller
Encoding: 58366 58366 322
Width: 292
UnlinkRmOvrlpSave: 1
Flags: HW
LayerCount: 2
Fore
SplineSet
133.506835938 262.4140625 m 3
 116.479331954 262.4140625 99.986328125 243.484838744 99.986328125 224.127929688 c 3
 99.986328125 168.899435329 256 149.786823823 256 80.416015625 c 3
 256 25.533203125 199.490234375 -3.125 134.478515625 -3.125 c 3
 84.3544921875 -3.125 38.0244140625 18.63671875 38.0244140625 63.392578125 c 3
 38.0244140625 150.437406604 183.484375 143.977262591 183.484375 204.95703125 c 3
 183.484375 229.035801644 165.676893433 262.4140625 133.506835938 262.4140625 c 3
144.493164062 278.02734375 m 3
 184.802094629 278.02734375 227.225585938 260.36328125 227.225585938 220.1640625 c 3
 227.225585938 150.421275193 87.681640625 152.742135275 87.681640625 86.501953125 c 3
 87.681640625 47.6003266731 121.909562968 14.732421875 159.788085938 14.732421875 c 3
 193.114227804 14.732421875 202.606445312 40.0161457023 202.606445312 63.560546875 c 3
 202.606445312 97.0771484375 178.207466755 108.177530765 139.823242188 130.08984375 c 0
 101.350178557 152.052872084 61.0185546875 168.9897956 61.0185546875 210.76953125 c 3
 61.0185546875 252.62109375 109.386375437 278.02734375 144.493164062 278.02734375 c 3
EndSplineSet
EndChar
StartChar: zero.tabulartext
Encoding: 58368 58368 2352
Width: 463
Flags: HW
LayerCount: 2
Fore
SplineSet
189.319335938 361.01953125 m 3
 153.225585938 361.01953125 144 313.030273438 144 278 c 3
 144 138.505859375 200.344726562 25 281 25 c 3
 316.809570312 25 325 72.736328125 325 112 c 3
 325 231.840820312 277.302734375 361.01953125 189.319335938 361.01953125 c 3
243.936523438 392.900390625 m 3
 353.076171875 392.900390625 434 310.32421875 434 197.900390625 c 3
 434 86.5712890625 342.9609375 -5.8896484375 223.741210938 -5.8896484375 c 3
 110.521484375 -5.8896484375 30.16015625 81.5712890625 30.16015625 190.900390625 c 3
 30.16015625 301.26171875 133.776367188 392.900390625 243.936523438 392.900390625 c 3
EndSplineSet
Substitution2: "pnum-1" zero
Substitution2: "lnum-1" zero.tabularlining
Substitution2: "numr-1" zero.numerator
Substitution2: "dnom-1" zero.denom
Substitution2: "'zero' Slashed Zero lookup 22-1" zero.tabulartextalt
EndChar
StartChar: two.tabulartext
Encoding: 58370 58370 806
Width: 463
Flags: HW
LayerCount: 2
Fore
SplineSet
76 340.5 m 1
 104.1796875 383.813476562 161.7421875 417.5 220 417.5 c 0
 300.75 417.5 356 383.5 356 313.5 c 3
 356 250.986328125 290.286132812 180.5 126 55 c 1
 262.950195312 44.5 301.431640625 47.5 375 53 c 1
 406.98828125 53.8720703125 418 77.5 444 117.5 c 1
 456 109.5 l 1
 456 109.5 404 27.5 386 -20.5 c 1
 369 -18 377.052734375 0.5 338 0.5 c 3
 53.65234375 0.5 55.91015625 -0.6484375 38 -5 c 1
 33 10 l 1
 83.146484375 45.5 288 168.5 288 303.5 c 3
 288 360.5 250.512695312 387.5 202 387.5 c 0
 144.883789062 387.5 115.786132812 357.5 91 329.5 c 1
 76 340.5 l 1
EndSplineSet
Substitution2: "pnum-1" two
Substitution2: "lnum-1" two.tabularlining
Substitution2: "numr-1" two.numerator
Substitution2: "dnom-1" two.denom
EndChar
StartChar: three.tabulartext
Encoding: 58371 58371 789
Width: 463
Flags: HW
LayerCount: 2
Fore
SplineSet
83 -208.799804688 m 1
 228.565217391 -178.799804688 299 -107.799804688 299 -20.7998046875 c 3
 299 74.7574088545 225.593220339 119.188027344 177 135 c 1
 170.565217391 135 125.52173913 115.219992488 103 111 c 1
 97 127 l 1
 165.469135802 150 285 197.200195312 285 297.200195312 c 3
 285 355.200195312 217.777777778 385.200195312 197 385.200195312 c 3
 151.060240964 385.200195312 127.530120482 366.200195312 104 349.200195312 c 1
 94 360.200195312 l 1
 118.84 394.200195312 193.36 418.200195312 229 418.200195312 c 3
 297.731958763 418.200195312 342 364.200195312 342 311.200195312 c 3
 342 264.123731635 304.741071429 216.674431102 235 167.799804688 c 1
 302.540322581 145.027831792 360 91.4185481071 360 4 c 3
 360 -144 134.794238683 -216.799804688 85 -223.799804688 c 1
 83 -208.799804688 l 1
EndSplineSet
Substitution2: "pnum-1" three
Substitution2: "lnum-1" three.tabularlining
Substitution2: "numr-1" three.numerator
Substitution2: "dnom-1" three.denom
EndChar
StartChar: four.proportionallining
Encoding: 58392 58392 377
Width: 511
Flags: HW
LayerCount: 2
Fore
SplineSet
294 227.5 m 1
 294 327.915948276 300.81640625 438.620820144 292 506.5 c 1
 292 506.5 164.223291252 331.479165397 77 227.5 c 1
 294 227.5 l 1
377 641.5 m 1
 369.979851974 615.370117187 359.516948 591.637827017 359 574.5 c 0
 355 441.892255892 354.509765625 377.86689486 351 227.5 c 1
 435.504201681 226 443.579831933 228 478 286.5 c 1
 478 286.5 488.103050595 282.059895833 491 280.5 c 1
 491 280.5 466.549804688 216.144597942 449 175 c 1
 433.038085938 184.591796875 430.772460938 183.060546875 351 183 c 1
 350.793945312 116.617647377 353.56640625 44.7550992252 358 22.5 c 1
 315.88 -1.96575342466 292.12 -26.9520547945 277 -53.5 c 1
 277 -53.5 262.209852431 -45.8866159539 260 -42.5 c 1
 294.941176471 9.8993576017 292.60475069 70.1753316549 293 182 c 1
 58.7858644164 182 59.3386454183 182.470588235 30 174 c 1
 30 174 20.8973214286 182.640478516 18 185 c 1
 33.2674591382 202.75530728 338.990376579 589.820789262 360.5 650.299804688 c 1
 377 641.5 l 1
EndSplineSet
Substitution2: "tnum-1" four.tabularlining
Substitution2: "onum-1" four
Substitution2: "numr-1" four.numerator
Substitution2: "dnom-1" four.denom
EndChar
StartChar: one.proportionalliningalt
Encoding: 58419 58419 615
Width: 373
Flags: HW
LayerCount: 2
Fore
SplineSet
220 547 m 0
 218.760786842 530.68619074 218 405.127184426 218 316 c 3
 218 211.034510204 219.205174102 64.0758215602 220 45 c 0
 220.87962963 21 266.142731481 14.1290322581 315 12 c 1
 314 -8 l 1
 268.450080584 0.495672252441 224.69579679 5.1669921875 180.850585938 5.1669921875 c 0
 141.150823736 5.1669921875 101.373438966 1.01460470777 60 -8 c 1
 58 11 l 1
 102.753351351 15.7777777778 155.132075472 21 157 54 c 0
 158.047489513 71.2835769689 164 114.753560166 164 316 c 3
 164 410.746887872 163.161553259 470.632900394 162.086914062 508.799804688 c 0
 161.551916012 527.800804685 155.499938062 541.799804688 138.5 541.799804688 c 3
 128.071851351 541.799804688 82.8809054054 521.228204685 65.5 517.799804688 c 1
 61.5 531.799804688 l 1
 118.53259887 551.389058419 184.338926554 601.250849463 231.5 661.799804688 c 1
 245.5 652.799804688 l 1
 229.998487805 628.315241887 225.548074072 620.038461188 220 547 c 0
EndSplineSet
EndChar
StartChar: uniFB02
Encoding: 64258 64258 2275
Width: 528
Flags: HW
LayerCount: 2
Fore
SplineSet
350.298704955 406 m 1
 351.632839674 529.475325045 350 632 319.642578124 652 c 0
 304.810250529 661.771796601 262.168945312 678 218 678 c 0
 149.205078125 678 191.841909208 558.838278476 191.572880366 513 c 0
 191.265142799 460.566364258 190.879376723 428.493507586 192 406 c 1
 350.298704955 406 l 1
490 753 m 1
 498 747 l 1
 486 730 479.171095336 710.865602504 476 696 c 0
 462 630 462 414 462 274 c 0
 462 223.092623781 464.361329374 174.930537541 466 125 c 0
 468.00210358 63.9956063152 474 31 508 20 c 1
 519.178710938 16.982421875 524.604492188 15.5673828125 524 16 c 1
 524 -2 l 1
 489.669921875 -2 475.010742188 -1 452 -1 c 0
 401.037109375 -1 333.77734375 0.6669921875 284 -6 c 1
 283 19 l 1
 291.71875 19.8662109375 301 21 307 24 c 1
 323 34 337.426757812 55.265625 344 149 c 0
 347.905020734 204.685560855 350 319.809322034 350 338 c 0
 350 347.518320449 350.03927573 356.855783878 350.10609526 366 c 1
 325 366 l 0
 194 366 l 1
 194 304.321243524 191.798102373 241.694255267 192 180 c 0
 192.298863628 88.675652848 196 61 207 44 c 0
 214.145354964 32.9571786921 222 23 234 21 c 0
 239.91855897 20.013573505 245.111111111 20 248 20 c 1
 248 -6 l 1
 190 -6 170 -2 137 -2 c 0
 98.64453125 -2 64.37109375 -2 18 -4 c 1
 18 20 l 1
 31 24 l 1
 65 38 68.370773043 69.0318816314 71 144 c 0
 72.5 186.770053476 74 229.540106952 74 273 c 0
 74 301.83 74 337.17 74 366 c 1
 59.543359376 364 30.8 360 30 358 c 1
 30 406 l 1
 76 406 l 1
 77 460.8625 77.901411032 514.819539442 91 562 c 0
 108.923845347 626.649475573 139.655273438 662.325195312 198 706 c 0
 231.939453125 731.153320312 265.43902439 750 326 750 c 0
 347.364473861 750 385.602224833 745.796090816 429.651367188 722.677734376 c 1
 450.618093611 736.675500554 471.935510469 742.938555062 490 753 c 1
EndSplineSet
LCarets2: 1 267
Ligature2: "liga-1" f l
EndChar
